<?xml version="1.0" standalone="no"?>
<!DOCTYPE svg PUBLIC "-//W3C//DTD SVG 20010904//EN"
 "http://www.w3.org/TR/2001/REC-SVG-20010904/DTD/svg10.dtd">
<svg version="1.0" xmlns="http://www.w3.org/2000/svg"
 width="300.000000pt" height="300.000000pt" viewBox="0 0 300.000000 300.000000"
 preserveAspectRatio="xMidYMid meet">
<metadata>
Created by potrace 1.11, written by Peter Selinger 2001-2013
</metadata>
<g transform="translate(0.000000,300.000000) scale(0.100000,-0.100000)"
fill="#000000" stroke="none">
<path d="M1201 2890 c-89 -13 -185 -35 -256 -61 -33 -11 -95 -27 -139 -35
-134 -24 -221 -77 -297 -180 -22 -30 -46 -54 -55 -54 -47 0 -205 -109 -263
-181 -62 -76 -85 -143 -89 -257 -3 -61 1 -129 8 -165 7 -34 13 -127 14 -207 1
-140 2 -147 31 -205 35 -68 86 -112 172 -146 49 -20 77 -23 176 -24 l117 0 0
-45 c0 -71 26 -172 60 -240 64 -127 169 -206 309 -230 66 -12 69 -14 61 -35
-5 -13 -6 -32 -3 -44 5 -20 12 -21 182 -23 l177 -3 -127 -310 c-71 -171 -127
-319 -126 -330 1 -13 10 -21 27 -23 22 -2 63 42 300 312 151 173 279 315 283
315 5 1 29 -17 54 -39 45 -40 146 -80 199 -80 13 0 47 -9 76 -20 60 -22 110
-70 181 -171 119 -170 252 -235 288 -142 13 35 7 67 -31 153 -40 92 -54 167
-40 220 9 34 18 44 59 65 58 29 102 79 138 156 18 40 36 61 60 74 44 24 86 72
120 138 32 63 42 186 21 256 -12 39 -11 53 3 110 80 315 -43 655 -299 827 -31
22 -60 44 -64 50 -89 137 -300 300 -548 423 -224 111 -371 150 -585 156 -71 2
-159 0 -194 -5z m371 -85 c103 -18 234 -63 343 -117 l80 -41 -40 -33 c-48 -43
-118 -64 -209 -65 -39 0 -79 -4 -90 -8 -11 -4 -42 1 -75 12 -84 30 -202 29
-264 -1 -50 -25 -71 -51 -61 -76 10 -27 42 -29 77 -4 27 19 44 23 112 23 117
0 120 -2 90 -67 -33 -71 -43 -159 -21 -177 9 -8 26 -11 40 -7 20 5 24 14 30
63 4 32 17 76 29 98 31 56 74 75 169 75 99 0 170 26 238 87 l50 45 98 -65
c105 -70 228 -179 274 -241 22 -31 28 -50 28 -93 0 -110 -68 -173 -203 -189
-75 -9 -145 9 -265 66 -113 55 -158 65 -176 38 -16 -26 1 -47 59 -68 28 -11
84 -36 125 -57 66 -33 75 -41 72 -63 -6 -35 15 -95 44 -130 28 -33 55 -38 74
-15 11 13 8 24 -14 64 -45 83 -41 88 67 93 168 8 268 79 292 211 4 20 11 37
15 37 4 0 43 -38 87 -83 142 -148 199 -302 190 -512 -6 -144 -9 -150 -50 -112
-39 37 -122 77 -159 77 -18 0 -31 -8 -39 -21 -14 -27 -2 -39 66 -64 100 -37
175 -146 175 -255 0 -101 -67 -207 -157 -250 -97 -45 -255 -36 -363 21 -65 34
-79 51 -90 109 -15 78 1 146 47 200 29 33 34 46 26 59 -27 43 -95 6 -134 -76
-24 -49 -31 -145 -16 -215 7 -35 6 -38 -23 -53 -17 -9 -51 -19 -76 -24 l-46
-9 26 27 c29 30 34 66 10 75 -9 3 -105 6 -214 6 l-198 0 70 178 c38 97 78 187
90 199 11 12 18 31 16 45 -5 35 -42 35 -83 -1 -44 -38 -90 -51 -185 -51 -86 0
-128 16 -253 98 -109 71 -174 94 -272 94 -141 1 -253 -48 -323 -142 -43 -57
-84 -73 -187 -73 -185 0 -285 80 -301 240 -8 76 12 199 39 240 27 40 90 81
136 89 85 14 109 35 80 70 -28 34 -174 -8 -235 -67 l-31 -30 -7 23 c-9 36 -7
122 5 180 15 74 49 127 121 192 75 68 138 101 239 122 88 20 154 13 194 -18
28 -22 85 -95 85 -109 0 -19 -57 -44 -109 -49 -64 -6 -87 -28 -58 -57 26 -26
116 -21 172 11 25 13 45 20 45 14 0 -19 51 -79 84 -99 37 -23 79 -25 96 -4 17
20 6 43 -27 56 -43 16 -61 37 -105 121 -49 95 -118 175 -173 199 -24 11 -64
19 -100 19 l-60 1 48 44 c51 47 136 85 191 85 23 0 40 -9 62 -31 47 -50 119
-82 199 -87 91 -5 127 8 123 46 -3 27 -3 27 -83 28 -81 0 -119 12 -173 55
l-23 18 70 21 c39 12 103 28 143 35 101 18 326 18 430 0z m-473 -1231 c52 -15
53 -16 47 -47 -8 -42 -47 -81 -128 -128 -81 -47 -119 -93 -125 -152 -9 -79 59
-173 106 -147 28 14 26 36 -4 72 -48 57 -24 118 67 164 65 33 134 98 150 139
12 34 15 35 56 7 10 -7 -11 -72 -87 -281 -54 -150 -100 -274 -102 -276 -2 -1
-33 2 -69 7 -125 19 -213 88 -272 213 -31 65 -33 78 -33 171 0 92 2 104 27
141 73 111 225 160 367 117z m258 -390 c7 -19 -36 -150 -54 -166 -19 -15 -53
0 -53 25 0 12 9 47 20 77 12 30 23 61 25 68 6 18 55 15 62 -4z m-72 -224 c0
-20 -6 -26 -28 -28 -29 -4 -44 16 -33 44 4 10 15 14 33 12 22 -2 28 -8 28 -28z
m962 -10 c76 -49 164 -72 271 -73 51 0 92 -5 92 -10 0 -5 -19 -29 -43 -52 -34
-34 -52 -45 -90 -50 -53 -8 -119 5 -186 37 -50 24 -76 16 -76 -22 0 -29 68
-66 154 -83 52 -11 57 -14 50 -32 -22 -57 -3 -175 45 -280 62 -137 -2 -102
-129 70 -121 163 -160 190 -317 220 -82 15 -147 45 -182 84 -18 20 -18 21 9
53 90 107 86 105 168 110 53 3 89 12 123 30 27 14 52 26 56 27 4 0 29 -13 55
-29z m-509 -36 c4 -30 -21 -48 -47 -34 -21 11 -28 40 -14 54 15 15 58 1 61
-20z"/>
<path d="M2067 2303 c-4 -3 -7 -17 -7 -30 0 -62 217 -90 235 -31 11 34 -12 49
-64 42 -32 -4 -59 -1 -85 10 -41 17 -68 20 -79 9z"/>
<path d="M1353 2010 c-52 -62 -128 -72 -338 -44 -155 20 -288 16 -335 -12 -70
-40 -96 -114 -69 -192 12 -34 44 -51 63 -32 6 6 11 39 11 72 0 55 3 62 28 82
25 18 41 21 120 20 51 0 150 -9 221 -18 83 -11 151 -15 192 -11 56 7 67 4 114
-21 63 -34 100 -85 100 -135 0 -42 18 -62 52 -57 20 3 23 9 26 56 2 43 -2 62
-22 97 -22 37 -89 98 -119 108 -6 2 0 18 13 35 19 26 22 37 14 50 -16 25 -50
26 -71 2z"/>
<path d="M1818 1789 c-25 -14 -22 -36 11 -95 50 -86 142 -139 233 -132 38 3
43 6 43 27 0 27 -11 34 -80 50 -64 16 -108 49 -134 105 -12 24 -29 47 -37 50
-19 7 -15 8 -36 -5z"/>
<path d="M2346 1598 c-15 -21 -15 -24 2 -39 21 -20 121 -39 151 -28 23 9 28
41 9 56 -7 6 -31 13 -53 17 -22 4 -52 9 -67 12 -19 4 -30 0 -42 -18z"/>
</g>
</svg>
