<svg xmlns="http://www.w3.org/2000/svg" viewBox="0 0 530.29 470"><defs><style>.cls-1{fill:none}.cls-2{fill:#d4e1f4}.cls-3{fill:#2eca8b}.cls-4{fill:#2f55d4}</style></defs><g id="Layer_2" data-name="Layer 2"><g id="Layer_1-2" data-name="Layer 1"><path class="cls-1" d="M190 312.86V157.48a77.76 77.76 0 000 155.38z"/><circle class="cls-1" cx="390.34" cy="349.88" r="6.72"/><circle class="cls-1" cx="358.4" cy="43.09" r="6.72"/><path class="cls-1" d="M201.68 53.36a5.67 5.67 0 01.17 1.38v20h224.76v-63H201.68zm192.66-24.91a14.64 14.64 0 11-14.64 14.64 14.83 14.83 0 0114.64-14.64zm-35.94 0a14.64 14.64 0 11-14.64 14.64 14.83 14.83 0 0114.64-14.64zM220.81 45.92v-8.65h95.8v11.65h-95.8z"/><circle class="cls-1" cx="354.41" cy="349.88" r="6.72"/><circle class="cls-1" cx="390.34" cy="120.62" r="6.72"/><circle class="cls-1" cx="354.41" cy="120.62" r="6.72"/><circle class="cls-1" cx="394.34" cy="43.09" r="6.72"/><path class="cls-1" d="M185.22 324.05q-1.89-.17-3.75-.42l-.61-.08a92.52 92.52 0 01-3.77-.61l-.5-.1c-1.28-.24-2.55-.51-3.82-.81l-.34-.09c-1.31-.31-2.61-.66-3.91-1h-.13A89.61 89.61 0 01105 248.38v-.07c-.21-1.42-.39-2.85-.53-4.28a.49.49 0 010-.12c-.15-1.43-.25-2.87-.33-4.32v-.1c-.07-1.46-.11-2.93-.11-4.41 0-1.47 0-2.94.11-4.4v-.11c.08-1.44.18-2.88.33-4.31a.49.49 0 010-.12c.14-1.44.32-2.86.53-4.28v-.07a89.58 89.58 0 0163.38-72.49h.13c1.3-.38 2.6-.72 3.92-1l.33-.08c1.27-.3 2.54-.57 3.83-.82l.49-.09c1.25-.23 2.5-.43 3.77-.61l.61-.09c1.24-.16 2.49-.3 3.75-.41.22 0 .45-.05.68-.06 1.25-.11 2.51-.19 3.77-.24h.36V60.43c-4.91.09-10.12.43-15.78 1l-5.86 47.39v.06a5.87 5.87 0 01-4.31 4.79h-.15a115.28 115.28 0 00-18.25 6 5.35 5.35 0 01-2.25.49 5.53 5.53 0 01-4.21-1.91L106.6 83.46a172.37 172.37 0 00-30.76 22.46L99 147.62v.06a5.73 5.73 0 01-.81 6.53A116.14 116.14 0 0087 169.76v.1a5.81 5.81 0 01-4.88 2.7 6.11 6.11 0 01-.86-.06H81l-46.95-9a164.2 164.2 0 00-11.65 36.32l43.3 20.24a6 6 0 013.32 5.34v.27c-.33 3.66-.48 6.69-.48 9.55s.15 5.86.48 9.48a5.45 5.45 0 01-3.41 5.73l-43.2 20.31a182.81 182.81 0 0011.67 36.32L81 298h.15a6.11 6.11 0 01.86-.06 5.57 5.57 0 015 2.89 126.69 126.69 0 0011.33 15.51 6 6 0 01.68 6.37v.12l-23.18 41.59a173.35 173.35 0 0030.76 22.46L139.27 352a5.79 5.79 0 014.11-1.78 5.19 5.19 0 012.23.5 142.2 142.2 0 0018.33 6h.06a5.85 5.85 0 014.31 4.78v.06l5.86 47.22c5.6.58 10.89.93 15.78 1v-85.41h-.36c-1.26 0-2.52-.12-3.77-.23z"/><circle class="cls-1" cx="390.34" cy="197.82" r="6.72"/><path class="cls-1" d="M426.61 185.17v-18.8H201.68v62.89h224.93v-44.09zm-110 10.07v8.65h-95.8v-11.65h95.8zm37.8 17.22a14.66 14.66 0 01-14.65-14.64 14.85 14.85 0 0114.65-14.65 14.65 14.65 0 010 29.29zm35.93 0a14.66 14.66 0 01-14.64-14.64 14.85 14.85 0 0114.64-14.65 14.65 14.65 0 010 29.29z"/><circle class="cls-1" cx="354.41" cy="197.82" r="6.72"/><path class="cls-1" d="M426.61 91v-4.82H201.85v65.39a5.27 5.27 0 01-.17 1.3v1.85h224.93V94zm-110 26.44v8.65h-95.8v-11.64h95.8zm37.8 17.81a14.66 14.66 0 01-14.65-14.64A14.84 14.84 0 01354.41 106a14.64 14.64 0 010 29.28zm35.93 0a14.66 14.66 0 01-14.64-14.64A14.84 14.84 0 01390.34 106a14.64 14.64 0 110 29.28z"/><circle class="cls-1" cx="354.41" cy="272.6" r="6.72"/><path class="cls-1" d="M201.68 303.79h224.93v-62.88H201.68zM390.34 258a14.64 14.64 0 11-14.64 14.6 14.84 14.84 0 0114.64-14.6zm-35.93 0a14.64 14.64 0 11-14.65 14.64A14.84 14.84 0 01354.41 258zm-133.6 17.47v-8.65h95.8v11.65h-95.8zm-18.96 140.29a5.58 5.58 0 01-.17 1.3v41.46h224.93v-63H201.85zm187.49-2.16a14.64 14.64 0 11-14.64 14.64 14.84 14.84 0 0114.64-14.64zm-35.93 0a14.64 14.64 0 11-14.64 14.64 14.83 14.83 0 0114.64-14.64zm-132.6 11.81v-3h95.8v11.65h-95.8v-8.66z"/><circle class="cls-1" cx="353.41" cy="428.24" r="6.72"/><circle class="cls-1" cx="389.34" cy="428.24" r="6.72"/><circle class="cls-1" cx="390.34" cy="272.6" r="6.72"/><path class="cls-1" d="M426.61 356.7v-41.26H201.68v2.26a5.07 5.07 0 01.17 1.23v64.89h224.76V356.7zm-110-9.65v8.65h-95.8v-11.64h95.8zm37.8 17.47a14.66 14.66 0 01-14.65-14.64 14.84 14.84 0 0114.65-14.64 14.64 14.64 0 010 29.28zm35.93 0a14.66 14.66 0 01-14.64-14.64 14.84 14.84 0 0114.64-14.64 14.64 14.64 0 110 29.28z"/><path class="cls-2" d="M313.61 48.92h3V37.27h-95.8v11.65h92.8zm-89.8 65.53h-3v11.65h95.8v-11.65h-92.8zm0 319.62h92.8v-11.65h-95.8v11.65h3zm0-90.01h-3v11.64h95.8v-11.64h-92.8zm89.8-65.63h3v-11.65h-95.8v11.65h92.8zm-89.8-86.19h-3v11.65h95.8v-11.65h-92.8zM354.41 106a14.84 14.84 0 00-14.65 14.64A14.65 14.65 0 10354.41 106zm0 21.36a6.72 6.72 0 116.71-6.72 6.72 6.72 0 01-6.71 6.7zM390.34 106a14.84 14.84 0 00-14.64 14.64A14.64 14.64 0 10390.34 106zm0 21.36a6.72 6.72 0 116.72-6.72 6.71 6.71 0 01-6.72 6.7zM358.4 57.73a14.64 14.64 0 100-29.28 14.83 14.83 0 00-14.64 14.64 14.66 14.66 0 0014.64 14.64zm0-21.35a6.72 6.72 0 11-6.71 6.71 6.71 6.71 0 016.71-6.71zm35.94 21.35a14.64 14.64 0 100-29.28 14.83 14.83 0 00-14.64 14.64 14.65 14.65 0 0014.64 14.64zm0-21.35a6.72 6.72 0 11-6.72 6.71 6.7 6.7 0 016.72-6.71zm-39.93 146.79a14.85 14.85 0 00-14.65 14.65 14.65 14.65 0 1014.65-14.65zm0 21.36a6.72 6.72 0 116.71-6.71 6.71 6.71 0 01-6.71 6.71zm35.93-21.36a14.85 14.85 0 00-14.64 14.65 14.64 14.64 0 1014.64-14.65zm0 21.36a6.72 6.72 0 116.72-6.71 6.7 6.7 0 01-6.72 6.71zm-35.93 82.71a14.64 14.64 0 000-29.28 14.84 14.84 0 00-14.65 14.64 14.66 14.66 0 0014.65 14.64zm0-21.35a6.72 6.72 0 11-6.72 6.71 6.7 6.7 0 016.72-6.71zm35.93 21.35a14.64 14.64 0 100-29.28 14.84 14.84 0 00-14.64 14.64 14.66 14.66 0 0014.64 14.64zm0-21.35a6.72 6.72 0 11-6.71 6.71 6.71 6.71 0 016.71-6.71zm-35.93 69.35a14.84 14.84 0 00-14.65 14.64 14.65 14.65 0 1014.65-14.64zm0 21.36a6.72 6.72 0 116.71-6.72 6.72 6.72 0 01-6.71 6.72zm35.93-21.36a14.84 14.84 0 00-14.64 14.64 14.64 14.64 0 1014.64-14.64zm0 21.36a6.72 6.72 0 116.72-6.72 6.71 6.71 0 01-6.72 6.72zm-36.93 86.28a14.64 14.64 0 100-29.28 14.83 14.83 0 00-14.64 14.64 14.65 14.65 0 0014.64 14.64zm0-21.35a6.72 6.72 0 11-6.72 6.71 6.7 6.7 0 016.72-6.71zm35.93 21.35a14.64 14.64 0 100-29.28 14.84 14.84 0 00-14.64 14.64 14.65 14.65 0 0014.64 14.64zm0-21.35a6.72 6.72 0 11-6.71 6.71 6.71 6.71 0 016.71-6.71z"/><path class="cls-1" d="M180.05 312.86V157.48a77.76 77.76 0 000 155.38z"/><circle class="cls-1" cx="348.41" cy="120.62" r="6.72"/><path class="cls-1" d="M191.69 53.36a5.67 5.67 0 01.17 1.38v20h224.76v-63H191.69zm192.66-24.91a14.64 14.64 0 11-14.64 14.64 14.83 14.83 0 0114.64-14.64zm-35.94 0a14.64 14.64 0 11-14.64 14.64 14.84 14.84 0 0114.64-14.64zM210.82 45.92v-8.65h95.8v11.65h-95.8z"/><circle class="cls-1" cx="384.35" cy="120.62" r="6.72"/><circle class="cls-1" cx="348.41" cy="43.09" r="6.72"/><circle class="cls-1" cx="384.35" cy="349.88" r="6.72"/><circle class="cls-1" cx="348.41" cy="349.88" r="6.72"/><path class="cls-1" d="M416.62 91v-4.82H191.86v65.39a5.27 5.27 0 01-.17 1.3v1.85h224.93V94zm-110 26.44v8.65h-95.8v-11.64h95.8zm41.79 17.81a14.66 14.66 0 01-14.64-14.64A14.84 14.84 0 01348.41 106a14.64 14.64 0 110 29.28zm35.94 0a14.66 14.66 0 01-14.64-14.64A14.83 14.83 0 01384.35 106a14.64 14.64 0 010 29.28zm-209.12 188.8q-1.89-.17-3.75-.42l-.61-.08c-1.26-.18-2.52-.38-3.76-.61l-.5-.1c-1.29-.24-2.56-.51-3.82-.81l-.34-.09c-1.32-.31-2.62-.66-3.91-1h-.14A89.64 89.64 0 0195 248.38v-.07c-.21-1.42-.39-2.85-.53-4.28a.49.49 0 010-.12c-.14-1.43-.25-2.87-.32-4.32a.34.34 0 010-.1c-.07-1.46-.11-2.93-.11-4.41 0-1.47 0-2.94.11-4.4a.41.41 0 010-.11c.07-1.44.18-2.88.32-4.31a.49.49 0 010-.12c.14-1.44.32-2.86.53-4.28v-.07a89.61 89.61 0 0163.4-72.49h.13c1.3-.38 2.6-.72 3.92-1l.34-.08c1.26-.3 2.54-.57 3.82-.82l.49-.09c1.25-.23 2.51-.43 3.77-.61l.61-.09c1.24-.16 2.49-.3 3.75-.41.23 0 .45-.05.68-.06 1.25-.11 2.51-.19 3.77-.24h.37V60.43c-4.92.09-10.13.43-15.79 1l-5.86 47.39v.06a5.87 5.87 0 01-4.31 4.79h-.14a114.62 114.62 0 00-18.25 6 5.4 5.4 0 01-2.26.49 5.55 5.55 0 01-4.21-1.91L96.61 83.46a172.37 172.37 0 00-30.76 22.46L89 147.62v.06a5.73 5.73 0 01-.8 6.53A115.33 115.33 0 0077 169.76v.1a5.81 5.81 0 01-4.88 2.7 6.33 6.33 0 01-.86-.06H71l-46.95-9a164.22 164.22 0 00-11.65 36.25l43.31 20.31a6 6 0 013.32 5.34v.27c-.34 3.66-.49 6.69-.49 9.55s.15 5.86.48 9.48a5.45 5.45 0 01-3.41 5.73l-43.19 20.31a182.81 182.81 0 0011.67 36.32L71 298h.14a6.36 6.36 0 01.87-.06 5.57 5.57 0 015 2.89 126.69 126.69 0 0011.33 15.51 6 6 0 01.67 6.37v.12l-23.16 41.59a173.35 173.35 0 0030.76 22.46L129.28 352a5.81 5.81 0 014.12-1.78 5.18 5.18 0 012.22.5 142.2 142.2 0 0018.33 6h.06a5.85 5.85 0 014.31 4.78v.06l5.86 47.22c5.61.58 10.89.93 15.79 1v-85.41h-.37c-1.26 0-2.52-.12-3.77-.23z"/><circle class="cls-1" cx="348.41" cy="197.82" r="6.72"/><circle class="cls-1" cx="384.35" cy="197.82" r="6.72"/><circle class="cls-1" cx="384.35" cy="43.09" r="6.72"/><path class="cls-1" d="M416.62 185.17v-18.8H191.69v62.89h224.93v-44.09zm-110 10.07v8.65h-95.8v-11.65h95.8zm41.79 17.22a14.66 14.66 0 01-14.64-14.64 14.85 14.85 0 0114.64-14.65 14.65 14.65 0 110 29.29zm35.94 0a14.66 14.66 0 01-14.64-14.64 14.84 14.84 0 0114.64-14.65 14.65 14.65 0 010 29.29z"/><circle class="cls-1" cx="348.41" cy="272.6" r="6.72"/><circle class="cls-1" cx="384.35" cy="428.24" r="6.72"/><path class="cls-1" d="M416.62 356.7v-41.26H191.69v2.26a4.62 4.62 0 01.17 1.23v64.89h224.76V356.7zm-110-9.65v8.65h-95.8v-11.64h95.8zm41.79 17.47a14.66 14.66 0 01-14.64-14.64 14.84 14.84 0 0114.64-14.64 14.64 14.64 0 110 29.28zm35.94 0a14.66 14.66 0 01-14.64-14.64 14.83 14.83 0 0114.64-14.64 14.64 14.64 0 010 29.28z"/><circle class="cls-1" cx="348.41" cy="428.24" r="6.72"/><path class="cls-1" d="M191.86 415.76a5.58 5.58 0 01-.17 1.3v41.46h224.93v-63H191.86zm192.49-2.16a14.64 14.64 0 11-14.64 14.64 14.83 14.83 0 0114.64-14.64zm-35.94 0a14.64 14.64 0 11-14.64 14.64 14.84 14.84 0 0114.64-14.64zm-137.59 11.81v-3h95.8v11.65h-95.8v-8.66zm-19.13-121.62h224.93v-62.88H191.69zM384.35 258a14.64 14.64 0 11-14.64 14.64A14.83 14.83 0 01384.35 258zm-35.94 0a14.64 14.64 0 11-14.64 14.64A14.84 14.84 0 01348.41 258zm-137.59 17.43v-8.65h95.8v11.65h-95.8z"/><circle class="cls-1" cx="384.35" cy="272.6" r="6.72"/><path d="M303.62 48.92h3V37.27h-95.8v11.65h92.8zm-89.8 65.53h-3v11.65h95.8v-11.65h-92.8zm0 319.62h92.8v-11.65h-95.8v11.65h3zm0-90.01h-3v11.64h95.8v-11.64h-92.8zm89.8-65.63h3v-11.65h-95.8v11.65h92.8zm-89.8-86.19h-3v11.65h95.8v-11.65h-92.8z"/><path class="cls-3" d="M348.41 106a14.84 14.84 0 00-14.64 14.64A14.65 14.65 0 10348.41 106zm0 21.36a6.72 6.72 0 116.72-6.72 6.71 6.71 0 01-6.72 6.7z"/><path class="cls-4" d="M384.35 106a14.83 14.83 0 00-14.64 14.64A14.64 14.64 0 10384.35 106zm0 21.36a6.72 6.72 0 116.72-6.72 6.72 6.72 0 01-6.72 6.7zm-35.94-69.63a14.64 14.64 0 100-29.28 14.84 14.84 0 00-14.64 14.64 14.66 14.66 0 0014.64 14.64zm0-21.35a6.72 6.72 0 11-6.71 6.71 6.71 6.71 0 016.71-6.71z"/><path class="cls-3" d="M384.35 57.73a14.64 14.64 0 000-29.28 14.83 14.83 0 00-14.64 14.64 14.66 14.66 0 0014.64 14.64zm0-21.35a6.72 6.72 0 11-6.72 6.71 6.71 6.71 0 016.72-6.71z"/><path class="cls-4" d="M348.41 183.17a14.85 14.85 0 00-14.64 14.65 14.65 14.65 0 1014.64-14.65zm0 21.36a6.72 6.72 0 116.72-6.71 6.7 6.7 0 01-6.72 6.71z"/><path class="cls-2" d="M400.52 74.7h109.45v11.48H400.52zm-38.11 80.02h109.45v11.65H362.41zm17.85 74.54h109.45v11.65H380.26zm-27.12 74.53h109.45v11.65H353.14zm16.12 80.03h109.45v11.65H369.26zm119.45 0h17.48v11.65h-17.48zm-16.12-80.03h11.65v11.65h-11.65zm27.11-74.53h16.42v11.65H499.7zm-17.85-74.54h14.07v11.65h-14.07zm38.12-80.02h10.33v11.48h-10.33z"/><path class="cls-3" d="M384.35 183.17a14.84 14.84 0 00-14.64 14.65 14.64 14.64 0 1014.64-14.65zm0 21.36a6.72 6.72 0 116.72-6.71 6.71 6.71 0 01-6.72 6.71zm-35.94 82.71a14.64 14.64 0 100-29.28 14.84 14.84 0 00-14.64 14.64 14.66 14.66 0 0014.64 14.64zm0-21.35a6.72 6.72 0 11-6.71 6.71 6.71 6.71 0 016.71-6.71z"/><path class="cls-4" d="M384.35 287.24a14.64 14.64 0 000-29.28 14.83 14.83 0 00-14.64 14.64 14.66 14.66 0 0014.64 14.64zm0-21.35a6.72 6.72 0 11-6.72 6.71 6.71 6.71 0 016.72-6.71zm-35.94 69.35a14.84 14.84 0 00-14.64 14.64 14.65 14.65 0 1014.64-14.64zm0 21.36a6.72 6.72 0 116.72-6.72 6.71 6.71 0 01-6.72 6.72z"/><path class="cls-3" d="M384.35 335.24a14.83 14.83 0 00-14.64 14.64 14.64 14.64 0 1014.64-14.64zm0 21.36a6.72 6.72 0 116.72-6.72 6.72 6.72 0 01-6.72 6.72zm-35.94 86.28a14.64 14.64 0 100-29.28 14.84 14.84 0 00-14.64 14.64 14.65 14.65 0 0014.64 14.64zm0-21.35a6.72 6.72 0 11-6.71 6.71 6.71 6.71 0 016.71-6.71z"/><path class="cls-4" d="M384.35 442.88a14.64 14.64 0 000-29.28 14.83 14.83 0 00-14.64 14.64 14.65 14.65 0 0014.64 14.64zm0-21.35a6.72 6.72 0 11-6.72 6.71 6.71 6.71 0 016.72-6.71z"/><path class="cls-2" d="M438.26 389.64V5.82A5.83 5.83 0 00432.44 0H195.86A5.83 5.83 0 00190 5.82V49a178.73 178.73 0 00-21.54 1.64 5.84 5.84 0 00-4.88 4.87v.06l-5.9 47.87c-3.84 1-7.88 2.33-12.44 4L112.2 72.15a5.9 5.9 0 00-4.2-1.8 5.76 5.76 0 00-2.77.73 186.56 186.56 0 00-40.38 29.41 5.73 5.73 0 00-1 6.94l23.25 42.3c-2.61 3.21-5.22 6.78-7.78 10.65L32 151.14a5.07 5.07 0 00-1.3-.14 5.66 5.66 0 00-5.1 3.32 183.8 183.8 0 00-15.34 47.35 5.62 5.62 0 003.18 6.33L57 228.45c-.13 2.3-.23 4.5-.23 6.63s.1 4.26.23 6.63l-43.72 20.42a5.78 5.78 0 00-3.23 6.15v.12a183.44 183.44 0 0015.37 47.47 5.69 5.69 0 005.27 3.26 6.11 6.11 0 00.86-.06h.15l47.44-9.27a130.89 130.89 0 007.78 10.66l-23.31 42.3a5.68 5.68 0 001 6.89 190.23 190.23 0 0040.38 29.4 5.89 5.89 0 002.89.78 5.43 5.43 0 004.13-1.9l33-35.25a126.52 126.52 0 0012.44 4l5.91 47.88v.06a5.86 5.86 0 004.88 4.87A182.33 182.33 0 00190 421.2v43a5.83 5.83 0 005.83 5.82h236.61a5.89 5.89 0 005.81-5.53v-74.85zM190 409.74c-4.89-.1-10.18-.45-15.78-1l-5.86-47.22v-.06a5.85 5.85 0 00-4.31-4.78H164a142.2 142.2 0 01-18.33-6 5.19 5.19 0 00-2.23-.5 5.79 5.79 0 00-4.11 1.78l-32.73 34.92a173.35 173.35 0 01-30.76-22.46L99 322.89v-.12a6 6 0 00-.68-6.37A126.69 126.69 0 0187 300.83a5.57 5.57 0 00-5-2.89 6.11 6.11 0 00-.86.06H81l-46.91 9a182.81 182.81 0 01-11.67-36.32l43.25-20.28a5.45 5.45 0 003.41-5.73c-.33-3.62-.48-6.64-.48-9.48s.15-5.89.48-9.55v-.27a6 6 0 00-3.32-5.34l-43.37-20.28A164.2 164.2 0 0134 163.43l46.95 9h.15a6.11 6.11 0 00.86.06 5.81 5.81 0 004.88-2.7v-.1a116.14 116.14 0 0111.29-15.5 5.73 5.73 0 00.81-6.53v-.06l-23.15-41.7a172.37 172.37 0 0130.81-22.44l32.61 34.82a5.53 5.53 0 004.21 1.91 5.35 5.35 0 002.25-.49 115.28 115.28 0 0118.25-6h.15a5.87 5.87 0 004.31-4.79v-.06l5.86-47.39c5.66-.59 10.87-.93 15.78-1v85.34h-.36c-1.26.05-2.52.13-3.77.24-.23 0-.46 0-.68.06-1.26.11-2.51.25-3.75.41l-.61.09c-1.27.18-2.52.38-3.77.61l-.49.09c-1.29.25-2.56.52-3.83.82l-.33.08c-1.32.32-2.62.66-3.92 1h-.13A89.58 89.58 0 00105 221.79v.07c-.21 1.42-.39 2.84-.53 4.28a.49.49 0 000 .12c-.15 1.43-.25 2.87-.33 4.31v.11c-.07 1.46-.11 2.93-.11 4.4 0 1.48 0 2.95.11 4.41v.1c.08 1.45.18 2.89.33 4.32a.49.49 0 000 .12c.14 1.43.32 2.86.53 4.28v.07a89.61 89.61 0 0063.38 72.49h.13c1.3.37 2.6.72 3.91 1l.34.09c1.27.3 2.54.57 3.82.81l.5.1c1.25.23 2.5.43 3.77.61l.61.08q1.86.25 3.75.42l.68.06c1.25.11 2.51.18 3.77.23h.36zm0-249.19v152.31a77.76 77.76 0 010-155.38zm236.58 298h-224.9v-41.49a5.58 5.58 0 00.17-1.3v-20.29h224.76zm0-110.47v35.74H201.85v-64.89a5.07 5.07 0 00-.17-1.23v-2.26h224.93zm0-71.54v27.28h-224.9v-62.91h224.93zm0-94.33v47.08h-224.9v-62.92h224.93zm0-27.46h-224.9v-1.85a5.27 5.27 0 00.17-1.3V86.18h224.76V94zm0-80H201.85v-20a5.67 5.67 0 00-.17-1.38V11.65h224.93z"/><path d="M428.27 389.64V5.82A5.83 5.83 0 00422.45 0H185.87a5.83 5.83 0 00-5.82 5.82V49a178.74 178.74 0 00-21.55 1.64 5.85 5.85 0 00-4.88 4.87v.06l-5.91 47.87c-3.84 1-7.87 2.33-12.44 4l-33.06-35.3A5.88 5.88 0 0098 70.35a5.69 5.69 0 00-2.76.73 186.62 186.62 0 00-40.39 29.41 5.73 5.73 0 00-1 6.94l23.28 42.26c-2.61 3.21-5.21 6.78-7.78 10.65L22 151.14a5.07 5.07 0 00-1.29-.16 5.65 5.65 0 00-5.09 3.32A183.81 183.81 0 00.27 201.65 5.62 5.62 0 003.46 208L47 228.45c-.13 2.3-.23 4.5-.23 6.63s.11 4.26.23 6.63L3.29 262.13a5.79 5.79 0 00-3.23 6.15v.12a184.2 184.2 0 0015.37 47.47 5.69 5.69 0 005.27 3.26 6.36 6.36 0 00.87-.06h.15l47.43-9.27c2.56 3.88 5.17 7.45 7.78 10.66l-23.31 42.3a5.7 5.7 0 001 6.89A190.23 190.23 0 0095 399.05a5.89 5.89 0 002.89.78 5.43 5.43 0 004.13-1.9l33-35.25a125.54 125.54 0 0012.43 4l5.91 47.88v.06a5.84 5.84 0 004.87 4.87 182.34 182.34 0 0021.72 1.64v43a5.83 5.83 0 005.82 5.82h236.68a5.88 5.88 0 005.81-5.53v-74.78zm-248.22 20.1c-4.9-.1-10.18-.45-15.79-1l-5.86-47.22v-.06a5.85 5.85 0 00-4.31-4.78H154a142.2 142.2 0 01-18.33-6 5.18 5.18 0 00-2.22-.5 5.81 5.81 0 00-4.12 1.78l-32.72 34.92a173.35 173.35 0 01-30.76-22.46L89 322.89v-.12a6 6 0 00-.67-6.37A126.69 126.69 0 0177 300.83a5.57 5.57 0 00-5-2.89 6.36 6.36 0 00-.87.06H71l-46.92 9a182.81 182.81 0 01-11.67-36.32l43.25-20.28a5.45 5.45 0 003.41-5.73c-.33-3.62-.48-6.64-.48-9.48s.15-5.89.49-9.55v-.27a6 6 0 00-3.32-5.34L12.4 199.75a164.22 164.22 0 0111.66-36.32l47 9h.14a6.33 6.33 0 00.86.06 5.81 5.81 0 004.88-2.7v-.1a115.33 115.33 0 0111.3-15.5 5.73 5.73 0 00.8-6.53v-.06l-23.15-41.7a172.37 172.37 0 0130.72-22.44l32.61 34.82a5.55 5.55 0 004.21 1.91 5.4 5.4 0 002.26-.49 114.62 114.62 0 0118.25-6h.13a5.87 5.87 0 004.31-4.79v-.06l5.86-47.39c5.66-.59 10.87-.93 15.79-1v85.34h-.37c-1.26.05-2.52.13-3.77.24-.23 0-.45 0-.68.06-1.26.11-2.51.25-3.75.41l-.61.09c-1.26.18-2.52.38-3.77.61l-.49.09c-1.28.25-2.56.52-3.82.82l-.34.08c-1.32.32-2.62.66-3.92 1h-.13A89.61 89.61 0 0095 221.79v.07c-.21 1.42-.39 2.84-.53 4.28a.49.49 0 000 .12c-.14 1.43-.25 2.87-.32 4.31a.41.41 0 000 .11c-.07 1.46-.11 2.93-.11 4.4 0 1.48 0 2.95.11 4.41a.34.34 0 000 .1c.07 1.45.18 2.89.32 4.32a.49.49 0 000 .12c.14 1.43.32 2.86.53 4.28v.07a89.64 89.64 0 0063.38 72.49h.14c1.29.37 2.59.72 3.91 1l.34.09c1.26.3 2.53.57 3.82.81l.5.1c1.24.23 2.5.43 3.76.61l.61.08q1.86.25 3.75.42l.68.06c1.25.11 2.51.18 3.77.23h.37zm0-249.19v152.31a77.76 77.76 0 010-155.38zm236.57 298H191.69v-41.49a5.58 5.58 0 00.17-1.3v-20.29h224.76zm0-110.47v35.74H191.86v-64.89a4.62 4.62 0 00-.17-1.23v-2.26h224.93zm0-71.54v27.28H191.69v-62.91h224.93zm0-94.33v47.08H191.69v-62.92h224.93zm0-27.46H191.69v-1.85a5.27 5.27 0 00.17-1.3V86.18h224.76V94zm0-80H191.86v-20a5.67 5.67 0 00-.17-1.38V11.65h224.93z"/><path d="M499.97 74.7H390.52v11.48h109.45V74.7zm-38.11 80.02H352.41v11.65h109.45v-11.65zm17.84 74.54H370.26v11.65H479.7v-11.65zm-27.11 74.53H343.14v11.65h109.45v-11.65zm16.12 80.03H359.26v11.65h109.45v-11.65zm27.48 0h-17.48v11.65h17.48v-11.65zm-21.95-80.03h-11.65v11.65h11.65v-11.65zm31.88-74.53H489.7v11.65h16.42v-11.65zm-20.19-74.54h-14.07v11.65h14.07v-11.65zm34.36-80.02h-10.32v11.48h10.32V74.7z"/></g></g></svg>