<svg xmlns="http://www.w3.org/2000/svg" width="347.912" height="360" viewBox="0 0 347.912 360"><defs><style>.a{fill:#d4e1f4;}.b{fill:#2f55d4;}.c{fill:#2eca8b;}</style></defs><g transform="translate(-492.676 -29.153)"><path class="a" d="M810.4,284.946l-27.313-35.93V155.466h-72.53v17.262c-3.781-.48-7.685-.883-11.674-1.2V144.7h56.3V124H791.7v-8.528H755.189V82.853h-8.528v32.622H671.813v55.177c-3.333.05-6.65.161-9.936.324v-34.8h-20.2v-31.96h-8.528v31.96H556.854l-.409,1.982L532.434,254.486l-.5,2.414,2.41.516,3.477.745,2.447.525.506-2.452L563.8,144.7h69.347v29.281c-4.925.825-9.56,1.787-13.77,2.883-16.713,4.35-26.319,10.29-28.042,17.68h0V371.9c0,8.591,9.435,15.4,28.042,20.246,15.256,3.971,35.937,6.249,56.741,6.249,20.765,0,41.423-2.278,56.679-6.249,18.6-4.842,28.059-11.65,28.1-20.233V194.546h0c-1.729-7.395-11.336-13.331-28.042-17.68-4.21-1.1-8.845-2.057-13.77-2.883v-9.989h55.474V251.85l.506.666,28.565,37.59,1.508,1.984,1.979-1.514,2.815-2.153,1.968-1.5ZM732.2,208.5c-14.922,4.192-34.839,6.5-56.086,6.5-21.277,0-41.206-2.308-56.116-6.5-15.8-4.441-20.084-9.248-20.137-11.424.052-2.174,4.343-6.981,20.168-11.426,4.028-1.132,8.43-2.121,13.114-2.97V199.6h8.528V181.332c3.761-.508,7.661-.931,11.674-1.264V199.6h8.528V179.5q4.895-.246,9.936-.325V199.6h8.528V179.178q5.081.073,10.018.327V199.6h8.528V180.069c4.013.334,7.913.758,11.674,1.266V199.6h8.528V182.68c4.672.848,9.064,1.836,13.083,2.965,15.789,4.44,20.117,9.253,20.2,11.438C752.3,199.264,748,204.06,732.2,208.5Zm-78.855-36.971c-3.989.32-7.893.724-11.674,1.2V144.7h11.674Zm37.01-32.867v32.318q-4.969-.246-10.018-.325V124h66.32v12.171h-56.3Zm-90.5,187.479q6.951,4.439,19.514,7.717c.261.068.536.132.8.2q.762.192,1.514.375c.291.07.578.142.872.21.873.205,1.732.4,2.581.58l.393.084c.839.18,1.667.352,2.472.51.137.027.28.052.418.079l.281.053q1.4.269,2.834.522l.513.089q1.365.237,2.762.46l.5.079q1.539.241,3.112.465l.161.023q3.371.474,6.879.863l.71.075q1.33.144,2.675.276l1.038.1q1.22.113,2.45.216c.368.031.734.063,1.1.093q1.349.107,2.709.2c.268.019.534.04.8.058q1.737.117,3.488.212c.323.018.647.031.97.049q1.282.065,2.568.121c.44.019.881.035,1.322.051q1.144.042,2.291.077c.449.013.9.026,1.347.037q1.211.031,2.423.05c.391.007.782.015,1.172.02q1.789.022,3.58.024h0q1.811,0,3.621-.025c.316,0,.633-.011.948-.016q1.406-.022,2.808-.057l.829-.022q1.651-.047,3.294-.112l.2-.007a244.518,244.518,0,0,0,36.406-4.02c9.033-1.773,20.5-4.816,28.148-9.707V371.9c0,2.154-4.248,6.994-20.17,11.467-14.922,4.192-34.839,6.5-56.086,6.5-21.277,0-41.206-2.308-56.116-6.5-15.9-4.469-20.139-9.31-20.139-11.467Zm152.511-12.53c0,2.154-4.248,6.994-20.17,11.466q-2.8.786-5.823,1.483c-3.021.7-6.2,1.325-9.517,1.882-4.421.744-9.084,1.361-13.93,1.846q-3.634.364-7.4.627c-5.015.35-10.184.565-15.451.636q-1.975.027-3.967.027c-21.277,0-41.206-2.308-56.116-6.5-15.9-4.469-20.139-9.31-20.139-11.466V267.848q1.34.856,2.89,1.669l.321.167q.535.276,1.1.546c7.258,3.524,16.379,5.859,23.841,7.324a244.33,244.33,0,0,0,36.3,4.016l.459.017q1.531.06,3.068.1c.315.009.629.018.945.026q1.361.035,2.726.055c.333.006.664.012,1,.017q1.808.022,3.617.025h0q1.8,0,3.607-.025c.351,0,.7-.012,1.052-.017q1.309-.02,2.615-.052l1.1-.031q1.384-.04,2.763-.093l.792-.031a244.156,244.156,0,0,0,36.178-4.011,121.218,121.218,0,0,0,17.863-4.81c.075-.028.154-.055.229-.082.194-.072.385-.146.578-.219q.631-.238,1.24-.48l.271-.109a48.287,48.287,0,0,0,7.968-4v45.756Zm0-58.289c0,2.154-4.248,6.994-20.17,11.467q-2.8.786-5.823,1.483c-3.021.7-6.2,1.325-9.517,1.882q-1.658.279-3.361.534-3.4.51-6.97.923a266.34,266.34,0,0,1-30.415,1.678c-21.277,0-41.206-2.308-56.116-6.5a75.731,75.731,0,0,1-11.716-4.205c-1.167-.551-2.188-1.092-3.078-1.618q-.668-.395-1.238-.777a11.024,11.024,0,0,1-3.77-3.67,3.582,3.582,0,0,1-.221-.521,2.417,2.417,0,0,1-.105-.465,1.838,1.838,0,0,1-.012-.209V209.642q6.951,4.439,19.514,7.717c15.256,3.971,35.937,6.249,56.741,6.249,20.765,0,41.423-2.278,56.679-6.249q12.6-3.28,19.576-7.746v45.706Z" transform="translate(-6.754 -9.238)"/><path class="a" d="M528.26,286.153a25.584,25.584,0,1,0,25.584,25.584A25.614,25.614,0,0,0,528.26,286.153Zm17.056,25.5A17.056,17.056,0,1,1,528.26,294.6,17.075,17.075,0,0,1,545.316,311.654Z" transform="translate(-1.72 -44.213)"/><path class="a" d="M876.66,316.053a25.584,25.584,0,1,0,18.2,43.592,25.178,25.178,0,0,0,7.385-18.024A25.61,25.61,0,0,0,876.66,316.053Zm17.056,25.482a16.986,16.986,0,1,1-4.9-11.984A16.72,16.72,0,0,1,893.716,341.535Z" transform="translate(-61.657 -49.356)"/><path class="a" d="M654.06,54.953a25.584,25.584,0,1,0,25.584,25.584A25.614,25.614,0,0,0,654.06,54.953Zm17.056,25.5A17.056,17.056,0,1,1,654.06,63.4,17.075,17.075,0,0,1,671.116,80.454Z" transform="translate(-23.362 -4.438)"/><path class="a" d="M791.16,29.153a25.584,25.584,0,1,0,25.584,25.584A25.614,25.614,0,0,0,791.16,29.153Zm17.056,25.5A17.056,17.056,0,1,1,791.16,37.6,17.075,17.075,0,0,1,808.216,54.654Z" transform="translate(-46.948)"/><path class="a" d="M888.744,122.137a25.584,25.584,0,1,0-25.584,25.584A25.614,25.614,0,0,0,888.744,122.137Zm-8.528-.083A17.091,17.091,0,1,1,875.21,110,17.075,17.075,0,0,1,880.216,122.054Z" transform="translate(-59.334 -11.595)"/><path d="M800.4,284.946l-27.313-35.93V155.466h-72.53v17.262c-3.781-.48-7.685-.883-11.674-1.2V144.7h56.3V124H781.7v-8.528H745.189V82.853h-8.528v32.622H661.813v55.177c-3.333.05-6.65.161-9.936.324v-34.8h-20.2v-31.96h-8.528v31.96H546.854l-.409,1.982L522.434,254.486l-.5,2.414,2.41.516,3.477.745,2.448.525.506-2.452L553.8,144.7h69.347v29.281c-4.925.825-9.56,1.787-13.77,2.883-16.713,4.35-26.319,10.29-28.042,17.68h0V371.9c0,8.591,9.435,15.4,28.042,20.246,15.256,3.971,35.937,6.249,56.741,6.249,20.765,0,41.423-2.278,56.679-6.249,18.6-4.842,28.059-11.65,28.1-20.233V194.546h0c-1.729-7.395-11.336-13.331-28.042-17.68-4.21-1.1-8.845-2.057-13.77-2.883v-9.989h55.474V251.85l.506.666,28.565,37.59,1.508,1.984,1.979-1.514,2.815-2.153,1.968-1.5ZM722.2,208.5c-14.922,4.192-34.839,6.5-56.086,6.5-21.277,0-41.206-2.308-56.116-6.5-15.8-4.441-20.084-9.248-20.137-11.424.052-2.174,4.343-6.981,20.168-11.426,4.028-1.132,8.43-2.121,13.114-2.97V199.6h8.528V181.332c3.761-.508,7.661-.931,11.674-1.264V199.6h8.528V179.5q4.895-.246,9.936-.325V199.6h8.528V179.178q5.081.073,10.018.327V199.6h8.528V180.069c4.013.334,7.913.758,11.674,1.266V199.6h8.528V182.68c4.672.848,9.064,1.836,13.083,2.965,15.789,4.44,20.117,9.253,20.2,11.438C742.3,199.264,738,204.06,722.2,208.5Zm-78.855-36.971c-3.989.32-7.893.724-11.674,1.2V144.7h11.674Zm37.01-32.867v32.318q-4.969-.246-10.018-.325V124h66.32v12.171h-56.3Zm-90.5,187.479q6.951,4.439,19.514,7.717c.261.068.536.132.8.2q.761.192,1.514.375c.291.07.578.142.872.21.873.205,1.732.4,2.581.58l.393.084c.839.18,1.668.352,2.472.51.137.027.28.052.418.079l.281.053q1.4.269,2.834.522l.513.089q1.365.237,2.762.46l.5.079q1.539.241,3.112.465l.161.023q3.371.474,6.879.863l.71.075q1.33.144,2.675.276l1.038.1q1.22.113,2.45.216c.368.031.734.063,1.1.093q1.349.107,2.709.2c.268.019.534.04.8.058q1.737.117,3.488.212c.323.018.647.031.97.049q1.282.065,2.568.121c.44.019.881.035,1.322.051q1.144.042,2.291.077c.449.013.9.026,1.347.037q1.211.031,2.423.05c.391.007.782.015,1.172.02q1.79.022,3.58.024h0q1.811,0,3.621-.025c.316,0,.633-.011.948-.016q1.406-.022,2.809-.057l.829-.022q1.651-.047,3.294-.112l.2-.007a244.518,244.518,0,0,0,36.406-4.02c9.033-1.773,20.5-4.816,28.148-9.707V371.9c0,2.154-4.248,6.994-20.17,11.467-14.922,4.192-34.839,6.5-56.086,6.5-21.277,0-41.206-2.308-56.116-6.5-15.9-4.469-20.139-9.31-20.139-11.467Zm152.512-12.53c0,2.154-4.248,6.994-20.17,11.466q-2.8.786-5.823,1.483c-3.021.7-6.2,1.325-9.517,1.882-4.421.744-9.084,1.361-13.93,1.846q-3.634.364-7.4.627c-5.015.35-10.184.565-15.451.636q-1.975.027-3.967.027c-21.277,0-41.206-2.308-56.116-6.5-15.9-4.469-20.139-9.31-20.139-11.466V267.848q1.34.856,2.89,1.669l.321.167q.535.276,1.1.546c7.258,3.524,16.379,5.859,23.841,7.324a244.332,244.332,0,0,0,36.3,4.016l.459.017q1.531.06,3.068.1c.315.009.629.018.945.026q1.361.035,2.726.055c.333.006.664.012,1,.017q1.808.022,3.617.025h0q1.8,0,3.607-.025c.351,0,.7-.012,1.052-.017q1.309-.02,2.616-.052l1.1-.031q1.384-.04,2.763-.093l.792-.031a244.156,244.156,0,0,0,36.178-4.011,121.217,121.217,0,0,0,17.862-4.81c.075-.028.154-.055.229-.082.194-.072.385-.146.578-.219q.631-.238,1.24-.48l.271-.109a48.289,48.289,0,0,0,7.968-4v45.756Zm0-58.289c0,2.154-4.248,6.994-20.17,11.467q-2.8.786-5.823,1.483c-3.021.7-6.2,1.325-9.517,1.882q-1.658.279-3.361.534-3.4.51-6.97.923a266.338,266.338,0,0,1-30.415,1.678c-21.277,0-41.206-2.308-56.116-6.5a75.731,75.731,0,0,1-11.716-4.205c-1.167-.551-2.188-1.092-3.078-1.618q-.668-.395-1.238-.777a11.025,11.025,0,0,1-3.77-3.67,3.582,3.582,0,0,1-.221-.521,2.421,2.421,0,0,1-.105-.465,1.838,1.838,0,0,1-.012-.209V209.642q6.951,4.439,19.514,7.717c15.256,3.971,35.937,6.249,56.741,6.249,20.765,0,41.423-2.278,56.679-6.249q12.6-3.28,19.576-7.746v45.706Z" transform="translate(-5.034 -9.238)"/><path class="b" d="M518.26,286.153a25.584,25.584,0,1,0,25.584,25.584A25.613,25.613,0,0,0,518.26,286.153Zm17.056,25.5A17.056,17.056,0,1,1,518.26,294.6,17.075,17.075,0,0,1,535.316,311.654Z" transform="translate(0 -44.213)"/><path class="b" d="M866.66,316.053a25.584,25.584,0,1,0,18.2,43.592,25.178,25.178,0,0,0,7.385-18.024A25.61,25.61,0,0,0,866.66,316.053Zm17.056,25.482a16.986,16.986,0,1,1-4.9-11.984A16.72,16.72,0,0,1,883.716,341.535Z" transform="translate(-59.936 -49.356)"/><path class="c" d="M644.06,54.953a25.584,25.584,0,1,0,25.584,25.584A25.613,25.613,0,0,0,644.06,54.953Zm17.056,25.5A17.056,17.056,0,1,1,644.06,63.4,17.075,17.075,0,0,1,661.116,80.454Z" transform="translate(-21.642 -4.438)"/><path class="b" d="M781.16,29.153a25.584,25.584,0,1,0,25.584,25.584A25.614,25.614,0,0,0,781.16,29.153Zm17.056,25.5A17.056,17.056,0,1,1,781.16,37.6,17.075,17.075,0,0,1,798.216,54.654Z" transform="translate(-45.228)"/><path class="c" d="M878.744,122.137a25.584,25.584,0,1,0-25.584,25.584A25.614,25.614,0,0,0,878.744,122.137Zm-8.528-.083A17.091,17.091,0,1,1,865.21,110,17.075,17.075,0,0,1,870.216,122.054Z" transform="translate(-57.614 -11.595)"/></g></svg>