<svg xmlns="http://www.w3.org/2000/svg" width="360.438" height="360" viewBox="0 0 360.438 360"><defs><style>.a{fill:#d4e1f4;}.b{fill:#2f55d4;}.c{fill:#2eca8b;}</style></defs><g transform="translate(-61.576 -84.253)"><path class="a" d="M391.6,84.253H102.109a31.569,31.569,0,0,0-31.533,31.533V301.479a31.569,31.569,0,0,0,31.533,31.533H294.859l29.3,50.719,29.2-50.719h38.15a31.568,31.568,0,0,0,31.533-31.533V152.487h.088v-36.7A31.568,31.568,0,0,0,391.6,84.253ZM78.722,144.341V115.786A23.413,23.413,0,0,1,102.109,92.4h289.4A23.413,23.413,0,0,1,414.9,115.786v28.555Zm0,128.584H414.985v28.555A23.413,23.413,0,0,1,391.6,324.866h-42.87l-24.576,42.569-24.575-42.569H102.109a23.413,23.413,0,0,1-23.387-23.387Zm336.175-68.5H78.722V152.662H414.9Zm0,60.35H78.722V212.837H414.9Z" transform="translate(-1.117)"/><g transform="translate(90.831 104.224)"><path class="a" d="M166.95,107.553H109.14a13.664,13.664,0,0,0,0,27.328h57.81a13.664,13.664,0,0,0,0-27.328Zm6.482,13.752a6.4,6.4,0,0,1-6.394,6.394h-57.81a6.394,6.394,0,1,1,0-12.788h57.81A6.4,6.4,0,0,1,173.432,121.3Z" transform="translate(-95.038 -107.115)"/><path class="a" d="M166.888,135.257h-57.81a14.1,14.1,0,0,1,0-28.2h57.81a14.1,14.1,0,0,1,0,28.2Zm-57.81-27.328a13.226,13.226,0,0,0,0,26.453h57.81a13.226,13.226,0,0,0,0-26.453Zm57.9,20.146h-57.81a6.832,6.832,0,1,1,0-13.664h57.81a6.832,6.832,0,1,1,0,13.664Zm-57.81-12.788a5.956,5.956,0,1,0,0,11.912h57.81a5.956,5.956,0,1,0,0-11.912Z" transform="translate(-94.976 -107.053)"/></g><path class="a" d="M165.888,175.853h-57.81a14.1,14.1,0,1,0,0,28.2h57.81a14.1,14.1,0,1,0,0-28.2Zm.088,20.058h-57.81a5.956,5.956,0,0,1,0-11.912h57.81a5.956,5.956,0,1,1,0,11.912Z" transform="translate(-4.02 -11.366)"/><path class="a" d="M165.888,244.553h-57.81a14.1,14.1,0,1,0,0,28.2h57.81a14.1,14.1,0,1,0,0-28.2Zm.088,20.146h-57.81a5.956,5.956,0,1,1,0-11.912h57.81a5.956,5.956,0,1,1,0,11.912Z" transform="translate(-4.02 -19.891)"/><path class="a" d="M165.888,313.253h-57.81a14.1,14.1,0,1,0,0,28.2h57.81a14.1,14.1,0,1,0,0-28.2Zm.088,20.146h-57.81a5.956,5.956,0,1,1,0-11.912h57.81a5.956,5.956,0,1,1,0,11.912Z" transform="translate(-4.02 -28.416)"/><rect class="a" width="177.11" height="8.146" transform="translate(215.824 174.472)"/><rect class="a" width="177.11" height="8.146" transform="translate(215.824 234.735)"/><rect class="a" width="57.548" height="8.146" transform="translate(215.824 294.91)"/><rect class="a" width="36.964" height="8.146" transform="translate(356.496 114.297)"/><rect class="a" width="57.548" height="8.146" transform="translate(215.824 114.297)"/><rect class="a" width="43.883" height="8.146" transform="translate(295.269 114.297)"/><path class="a" d="M104.576,403.753v32.672H266.007V403.753ZM257.948,411.9v16.38H112.722V411.9Z" transform="translate(-5.336 -39.646)"/><path class="a" d="M104.576,457.953v32.672h111.5V457.953ZM208.021,466.1v16.38h-95.3V466.1Z" transform="translate(-5.336 -46.372)"/><path d="M382.6,84.253H93.109a31.569,31.569,0,0,0-31.533,31.533V301.479a31.569,31.569,0,0,0,31.533,31.533H285.859l29.3,50.719,29.2-50.719h38.15a31.568,31.568,0,0,0,31.533-31.533V152.487h.088v-36.7A31.568,31.568,0,0,0,382.6,84.253ZM69.722,144.341V115.786A23.413,23.413,0,0,1,93.109,92.4h289.4A23.413,23.413,0,0,1,405.9,115.786v28.555Zm0,128.584H405.985v28.555A23.413,23.413,0,0,1,382.6,324.866h-42.87l-24.576,42.569-24.575-42.569H93.109a23.413,23.413,0,0,1-23.387-23.387Zm336.175-68.5H69.722V152.662H405.9Zm0,60.35H69.722V212.837H405.9Z" transform="translate(0)"/><g transform="translate(82.072 104.224)"><path class="b" d="M156.95,107.553H99.14a13.664,13.664,0,0,0,0,27.328h57.81a13.664,13.664,0,0,0,0-27.328Zm6.482,13.752a6.4,6.4,0,0,1-6.394,6.394H99.228a6.394,6.394,0,0,1,0-12.788h57.81A6.4,6.4,0,0,1,163.432,121.3Z" transform="translate(-85.038 -107.115)"/><path class="b" d="M156.888,135.257H99.078a14.1,14.1,0,0,1,0-28.2h57.81a14.1,14.1,0,0,1,0,28.2Zm-57.81-27.328a13.226,13.226,0,1,0,0,26.453h57.81a13.226,13.226,0,0,0,0-26.453Zm57.9,20.146H99.166a6.832,6.832,0,1,1,0-13.664h57.81a6.832,6.832,0,1,1,0,13.664Zm-57.81-12.788a5.956,5.956,0,1,0,0,11.912h57.81a5.956,5.956,0,1,0,0-11.912Z" transform="translate(-84.976 -107.053)"/></g><path class="b" d="M156.888,175.853H99.078a14.1,14.1,0,1,0,0,28.2h57.81a14.1,14.1,0,1,0,0-28.2Zm.088,20.058H99.166a5.956,5.956,0,0,1,0-11.912h57.81a5.956,5.956,0,1,1,0,11.912Z" transform="translate(-2.904 -11.366)"/><path class="b" d="M156.888,244.553H99.078a14.1,14.1,0,1,0,0,28.2h57.81a14.1,14.1,0,1,0,0-28.2Zm.088,20.146H99.166a5.956,5.956,0,1,1,0-11.912h57.81a5.956,5.956,0,1,1,0,11.912Z" transform="translate(-2.904 -19.891)"/><path class="b" d="M156.888,313.253H99.078a14.1,14.1,0,1,0,0,28.2h57.81a14.1,14.1,0,1,0,0-28.2Zm.088,20.146H99.166a5.956,5.956,0,1,1,0-11.912h57.81a5.956,5.956,0,1,1,0,11.912Z" transform="translate(-2.904 -28.416)"/><rect width="177.11" height="8.146" transform="translate(207.065 174.472)"/><rect width="177.11" height="8.146" transform="translate(207.065 234.735)"/><rect width="57.548" height="8.146" transform="translate(207.065 294.91)"/><rect width="36.964" height="8.146" transform="translate(347.736 114.297)"/><rect width="57.548" height="8.146" transform="translate(207.065 114.297)"/><rect width="43.883" height="8.146" transform="translate(286.51 114.297)"/><path class="c" d="M95.576,403.753v32.672H257.007V403.753ZM248.948,411.9v16.38H103.722V411.9Z" transform="translate(-4.219 -39.646)"/><path class="c" d="M95.576,457.953v32.672h111.5V457.953ZM199.021,466.1v16.38h-95.3V466.1Z" transform="translate(-4.219 -46.372)"/></g></svg>