<svg xmlns="http://www.w3.org/2000/svg" width="360.438" height="360"><defs><style>.a{fill:#d4e1f4}.b{fill:#2f55d4}</style></defs><path class="a" d="M328.907 0H39.416A31.569 31.569 0 007.883 31.533v185.693a31.569 31.569 0 0031.533 31.533h192.75l29.3 50.719 29.2-50.719h38.15a31.568 31.568 0 0031.533-31.533V68.234h.088v-36.7A31.568 31.568 0 00328.907 0zM16.029 60.088V31.533A23.413 23.413 0 0139.416 8.147h289.4a23.413 23.413 0 0123.391 23.386v28.555zm0 128.584h336.263v28.555a23.413 23.413 0 01-23.385 23.386h-42.87l-24.576 42.569-24.575-42.569H39.416a23.413 23.413 0 01-23.387-23.387zm336.175-68.5H16.029V68.409h336.178zm0 60.35H16.029v-51.938h336.178z"/><path class="a" d="M101.167 20.409h-57.81a13.664 13.664 0 000 27.328h57.81a13.664 13.664 0 000-27.328zm6.482 13.752a6.4 6.4 0 01-6.394 6.394h-57.81a6.394 6.394 0 110-12.788h57.81a6.4 6.4 0 016.394 6.389z"/><path class="a" d="M101.167 48.175h-57.81a14.1 14.1 0 010-28.2h57.81a14.1 14.1 0 010 28.2zm-57.81-27.328a13.227 13.227 0 000 26.453h57.81a13.227 13.227 0 000-26.453zm57.9 20.146h-57.81a6.832 6.832 0 110-13.664h57.81a6.832 6.832 0 110 13.664zm-57.81-12.788a5.956 5.956 0 100 11.912h57.81a5.956 5.956 0 100-11.912zm56.845 52.029h-57.81a14.1 14.1 0 100 28.2h57.81a14.1 14.1 0 100-28.2zm.088 20.058H42.57a5.956 5.956 0 010-11.912h57.81a5.956 5.956 0 110 11.912zm-.088 40.117h-57.81a14.1 14.1 0 100 28.2h57.81a14.1 14.1 0 100-28.2zm.088 20.146H42.57a5.956 5.956 0 110-11.912h57.81a5.956 5.956 0 110 11.912zm-.088 40.029h-57.81a14.1 14.1 0 100 28.2h57.81a14.1 14.1 0 100-28.2zm.088 20.146H42.57a5.956 5.956 0 110-11.912h57.81a5.956 5.956 0 110 11.912zm53.868-130.511h177.11v8.146h-177.11zm0 60.263h177.11v8.146h-177.11zm0 60.175h57.548v8.146h-57.548zM294.92 30.044h36.964v8.146H294.92zm-140.672 0h57.548v8.146h-57.548zm79.445 0h43.883v8.146h-43.883zM37.664 279.854v32.672h161.431v-32.672zm153.372 8.147v16.38H45.81v-16.38zM37.664 327.328V360h111.5v-32.672zm103.445 8.147v16.38h-95.3v-16.38z"/><path d="M321.024 0H31.533A31.569 31.569 0 000 31.533v185.693a31.569 31.569 0 0031.533 31.533h192.75l29.3 50.719 29.2-50.719h38.15a31.568 31.568 0 0031.533-31.533V68.234h.088v-36.7A31.568 31.568 0 00321.024 0zM8.146 60.088V31.533A23.413 23.413 0 0131.533 8.147h289.4a23.413 23.413 0 0123.391 23.386v28.555zm0 128.584h336.263v28.555a23.413 23.413 0 01-23.385 23.386h-42.87l-24.576 42.569-24.575-42.569H31.533a23.413 23.413 0 01-23.387-23.387zm336.175-68.5H8.146V68.409h336.178zm0 60.35H8.146v-51.938h336.178z"/><path class="b" d="M92.408 20.409h-57.81a13.664 13.664 0 000 27.328h57.81a13.664 13.664 0 000-27.328zm6.482 13.752a6.4 6.4 0 01-6.394 6.394h-57.81a6.394 6.394 0 010-12.788h57.81a6.4 6.4 0 016.394 6.389z"/><path class="b" d="M92.408 48.175h-57.81a14.1 14.1 0 010-28.2h57.81a14.1 14.1 0 010 28.2zm-57.81-27.328a13.227 13.227 0 100 26.453h57.81a13.227 13.227 0 000-26.453zm57.9 20.146H34.686a6.832 6.832 0 110-13.664h57.81a6.832 6.832 0 110 13.664zm-57.81-12.788a5.956 5.956 0 100 11.912h57.81a5.956 5.956 0 100-11.912zm57.72 52.029h-57.81a14.1 14.1 0 100 28.2h57.81a14.1 14.1 0 100-28.2zm.088 20.058h-57.81a5.956 5.956 0 010-11.912h57.81a5.956 5.956 0 110 11.912zm-.088 40.117h-57.81a14.1 14.1 0 100 28.2h57.81a14.1 14.1 0 100-28.2zm.088 20.146h-57.81a5.956 5.956 0 110-11.912h57.81a5.956 5.956 0 110 11.912zm-.088 40.029h-57.81a14.1 14.1 0 100 28.2h57.81a14.1 14.1 0 100-28.2zm.088 20.146h-57.81a5.956 5.956 0 110-11.912h57.81a5.956 5.956 0 110 11.912z"/><path d="M145.489 90.219h177.11v8.146h-177.11zm0 60.263h177.11v8.146h-177.11zm0 60.175h57.548v8.146h-57.548zM286.16 30.044h36.964v8.146H286.16zm-140.671 0h57.548v8.146h-57.548zm79.445 0h43.883v8.146h-43.883z"/><path d="M29.781 279.854v32.672h161.431v-32.672zm153.372 8.147v16.38H37.927v-16.38zM29.781 327.328V360h111.5v-32.672zm103.445 8.147v16.38h-95.3v-16.38z" fill="#2eca8b"/></svg>