<svg xmlns="http://www.w3.org/2000/svg" width="356.098" height="360"><defs><style>.a{fill:#d4e1f4}.b,.c{fill:none;stroke-linecap:round;stroke-miterlimit:10;stroke-width:10px}.b{stroke:#000}.c{stroke:#2eca8b}</style></defs><g transform="translate(-970.701 -83.539)"><circle class="a" cx="7.848" cy="7.848" r="7.848" transform="translate(1102.041 407.4)"/><circle class="a" cx="7.848" cy="7.848" r="7.848" transform="translate(1177.263 407.4)"/><circle class="a" cx="7.848" cy="7.848" r="7.848" transform="translate(1139.652 407.4)"/><path class="a" d="M1186.471 198.721c.336.039.669.087 1.008.119v31.853h-68.82a5.479 5.479 0 00-5.479 5.479v15.478h-49.293c-.156 0-.3.033-.454.046-.152-.013-.3-.046-.454-.046a5.479 5.479 0 00-5.479 5.479v17.8a17.385 17.385 0 1010.957 0v-12.321h44.721v27.112a17.386 17.386 0 1010.957 0v-48.069h63.341v21.885a17.386 17.386 0 1010.957 0V222.6h50.958v49a17.386 17.386 0 1010.957 0v-54.478a5.479 5.479 0 00-5.479-5.479h-56.437v-12.62a106.284 106.284 0 0087.283-50.356 12.032 12.032 0 00.149-12.519 106.875 106.875 0 00-182.817-2.2 12.034 12.034 0 00-.148 12.519 107.442 107.442 0 0083.572 52.254zm-123.49 99.128a6.428 6.428 0 116.428-6.429 6.436 6.436 0 01-6.428 6.429zm55.679 14.787a6.428 6.428 0 116.429-6.429 6.436 6.436 0 01-6.429 6.429zm136.214-18.121a6.428 6.428 0 116.429-6.428 6.435 6.435 0 01-6.429 6.428zm-108.38-153.056a46.71 46.71 0 1148.811 46.657h-.327c-2.473 0-4.932-.108-7.377-.3a46.769 46.769 0 01-41.107-46.357zm46.464 144.993a6.428 6.428 0 116.429-6.429 6.436 6.436 0 01-6.429 6.429zm83.474-144.733a1.122 1.122 0 01-.011 1.153 95.809 95.809 0 01-38.787 35.309 57.521 57.521 0 00.6-72.685 96.171 96.171 0 0138.198 36.223zm-164.081-1.973a95.939 95.939 0 0135.179-33.43 57.482 57.482 0 00-1.462 68.3 96.043 96.043 0 01-33.725-33.716 1.119 1.119 0 01.008-1.154z"/><path class="a" d="M1205.774 156.661a21.54 21.54 0 10-21.54 21.54 21.564 21.564 0 0021.54-21.54zm-21.54 10.583a10.583 10.583 0 1110.583-10.583 10.594 10.594 0 01-10.587 10.583z"/><path class="a" d="M1303.615 150.805c-1.167-.039-2.335-.013-3.505-.014h-6.728a6.475 6.475 0 01-.85 0v10.975c6.863.417 23.31 6.145 23.31 13.108v175.711a13.187 13.187 0 01-13.149 13.149h-296.929a13.187 13.187 0 01-13.149-13.149V174.866a13.187 13.187 0 0113.149-13.149h79.666V150.76h-79.666a24.133 24.133 0 00-24.107 24.106v175.719a24.133 24.133 0 0024.106 24.106h112.5v10.957h-15.846a18.648 18.648 0 00-18.627 18.627v20.636a18.648 18.648 0 0018.627 18.627h101.122a18.648 18.648 0 0018.628-18.627v-20.638a18.648 18.648 0 00-18.628-18.627h-15.318v-10.955h114.472a24.133 24.133 0 0024.106-24.106V174.866a23.979 23.979 0 00-4.635-14.194 24.229 24.229 0 00-11.821-8.663 23.86 23.86 0 00-5.012-1.089 23.611 23.611 0 00-1.716-.115zm-100.077 245.8a7.679 7.679 0 017.67 7.67v20.636a7.679 7.679 0 01-7.67 7.67h-101.121a7.679 7.679 0 01-7.67-7.67v-20.638a7.679 7.679 0 017.67-7.67h101.122zm-26.276-10.957h-48.045v-10.957h48.046z"/><g transform="translate(1045.595 196.231)"><path class="b" d="M141.885 0v71.376m0-31.434H67.586m0 58.105V39.942M203.8 20.891h-61.915M203.8 79.949V20.891M64.252 60.898H12.815m-.908 22.385V60.898"/><circle class="b" cx="11.907" cy="11.907" r="11.907" transform="translate(0 83.283)"/><circle class="b" cx="11.907" cy="11.907" r="11.907" transform="translate(55.68 98.07)"/><circle class="b" cx="11.907" cy="11.907" r="11.907" transform="translate(129.978 71.886)"/><circle class="b" cx="11.907" cy="11.907" r="11.907" transform="translate(191.893 79.949)"/></g><rect class="b" width="127.42" height="46.934" rx="12" transform="translate(1078.311 391.127)"/><g transform="translate(1096.562 407.4)"><circle cx="7.848" cy="7.848" r="7.848"/><circle cx="7.848" cy="7.848" r="7.848" transform="translate(75.222)"/><circle cx="7.848" cy="7.848" r="7.848" transform="translate(37.611)"/></g><path class="b" d="M1112.781 369.212h59.003v21.915h-59.003z"/><circle class="c" cx="52.188" cy="52.188" r="52.188" transform="translate(1135.538 89.272)"/><path class="c" d="M1188.315 89.018a101.3 101.3 0 00-86.092 47.831 6.6 6.6 0 00-.08 6.835 101.4 101.4 0 00173.449 2.086 6.6 6.6 0 00.08-6.835 101.322 101.322 0 00-87.357-49.917z"/><circle class="c" cx="16.061" cy="16.061" r="16.061" transform="translate(1161.594 140.6)"/><path d="M1292.658 150.783l-.007.012c-.039 0-.08-.007-.119-.012v10.975a13.18 13.18 0 0112.352 13.108v175.719a13.187 13.187 0 01-13.149 13.149H994.807a13.187 13.187 0 01-13.149-13.149V174.866a13.187 13.187 0 0113.149-13.149h90.624V150.76h-90.624a24.133 24.133 0 00-24.107 24.106v175.719a24.133 24.133 0 0024.106 24.106h296.929a24.133 24.133 0 0024.106-24.106V174.866a24.131 24.131 0 00-23.183-24.083z"/></g></svg>