<svg xmlns="http://www.w3.org/2000/svg" width="356.098" height="360" viewBox="0 0 356.098 360"><defs><style>.a{fill:#d4e1f4;}.b,.c{fill:none;stroke-linecap:round;stroke-miterlimit:10;stroke-width:10px;}.b{stroke:#000;}.c{stroke:#2eca8b;}</style></defs><g transform="translate(-970.701 -83.539)"><circle class="a" cx="7.848" cy="7.848" r="7.848" transform="translate(1102.041 407.4)"/><circle class="a" cx="7.848" cy="7.848" r="7.848" transform="translate(1177.263 407.4)"/><circle class="a" cx="7.848" cy="7.848" r="7.848" transform="translate(1139.652 407.4)"/><path class="a" d="M1179.928,198.721c.336.039.669.087,1.008.119v31.853h-68.82a5.479,5.479,0,0,0-5.479,5.479v15.478h-49.293c-.156,0-.3.033-.454.046-.152-.013-.3-.046-.454-.046a5.479,5.479,0,0,0-5.479,5.479v17.8a17.385,17.385,0,1,0,10.957,0V262.608h44.721V289.72a17.386,17.386,0,1,0,10.957,0V241.651h63.341v21.885a17.386,17.386,0,1,0,10.957,0V222.6h50.958v49a17.386,17.386,0,1,0,10.957,0V217.122a5.479,5.479,0,0,0-5.479-5.479h-56.437v-12.62a106.284,106.284,0,0,0,87.283-50.356,12.032,12.032,0,0,0,.149-12.519,106.875,106.875,0,0,0-182.817-2.2,12.034,12.034,0,0,0-.148,12.519A107.442,107.442,0,0,0,1179.928,198.721Zm-123.49,99.128a6.428,6.428,0,1,1,6.428-6.429A6.436,6.436,0,0,1,1056.438,297.849Zm55.679,14.787a6.428,6.428,0,1,1,6.429-6.429A6.436,6.436,0,0,1,1112.117,312.636Zm136.214-18.121a6.428,6.428,0,1,1,6.429-6.428A6.435,6.435,0,0,1,1248.331,294.515ZM1139.951,141.459a46.71,46.71,0,1,1,48.811,46.657c-.109,0-.217,0-.327,0-2.473,0-4.932-.108-7.377-.3A46.769,46.769,0,0,1,1139.951,141.459Zm46.464,144.993a6.428,6.428,0,1,1,6.429-6.429A6.436,6.436,0,0,1,1186.415,286.452Zm83.474-144.733a1.122,1.122,0,0,1-.011,1.153,95.809,95.809,0,0,1-38.787,35.309,57.521,57.521,0,0,0,.6-72.685A96.171,96.171,0,0,1,1269.889,141.719Zm-164.081-1.973a95.939,95.939,0,0,1,35.179-33.43,57.482,57.482,0,0,0-1.462,68.3A96.043,96.043,0,0,1,1105.8,140.9,1.119,1.119,0,0,1,1105.808,139.746Z" transform="translate(6.543)"/><path class="a" d="M1189,152.154a21.54,21.54,0,1,0-21.54,21.54A21.564,21.564,0,0,0,1189,152.154Zm-21.54,10.583a10.583,10.583,0,1,1,10.583-10.583A10.594,10.594,0,0,1,1167.456,162.737Z" transform="translate(16.774 4.507)"/><path class="a" d="M1302.658,144.932c-1.167-.039-2.335-.013-3.505-.014l-4.669,0-2.059,0a6.475,6.475,0,0,1-.85,0v10.975c6.863.417,23.31,6.145,23.31,13.108V344.712a13.187,13.187,0,0,1-13.149,13.149H1004.807a13.187,13.187,0,0,1-13.149-13.149V168.993a13.187,13.187,0,0,1,13.149-13.149h79.666V144.887h-79.666A24.133,24.133,0,0,0,980.7,168.993V344.712a24.133,24.133,0,0,0,24.106,24.106h112.5v10.957H1101.46a18.648,18.648,0,0,0-18.627,18.627v20.636a18.648,18.648,0,0,0,18.627,18.627h101.122a18.648,18.648,0,0,0,18.628-18.627V398.4a18.648,18.648,0,0,0-18.628-18.627h-15.318V368.818h114.472a24.133,24.133,0,0,0,24.106-24.106V168.993a23.979,23.979,0,0,0-4.635-14.194,24.229,24.229,0,0,0-11.821-8.663,23.86,23.86,0,0,0-5.012-1.089C1303.8,144.986,1303.23,144.951,1302.658,144.932Zm-100.077,245.8a7.679,7.679,0,0,1,7.67,7.67v20.636a7.679,7.679,0,0,1-7.67,7.67H1101.46a7.679,7.679,0,0,1-7.67-7.67V398.4a7.679,7.679,0,0,1,7.67-7.67h101.122Zm-26.276-10.957H1128.26V368.818h48.046Z" transform="translate(0.957 5.873)"/><g transform="translate(1045.595 196.231)"><line class="b" y2="71.376" transform="translate(141.885 0)"/><line class="b" x1="74.299" transform="translate(67.586 39.942)"/><line class="b" y1="58.105" transform="translate(67.586 39.942)"/><line class="b" x1="61.915" transform="translate(141.885 20.891)"/><line class="b" y1="59.058" transform="translate(203.8 20.891)"/><line class="b" x1="51.437" transform="translate(12.815 60.898)"/><line class="b" y1="22.385" transform="translate(11.907 60.898)"/><circle class="b" cx="11.907" cy="11.907" r="11.907" transform="translate(0 83.283)"/><circle class="b" cx="11.907" cy="11.907" r="11.907" transform="translate(55.68 98.07)"/><circle class="b" cx="11.907" cy="11.907" r="11.907" transform="translate(129.978 71.886)"/><circle class="b" cx="11.907" cy="11.907" r="11.907" transform="translate(191.893 79.949)"/></g><rect class="b" width="127.42" height="46.934" rx="12" transform="translate(1078.311 391.127)"/><g transform="translate(1096.562 407.4)"><circle cx="7.848" cy="7.848" r="7.848"/><circle cx="7.848" cy="7.848" r="7.848" transform="translate(75.222)"/><circle cx="7.848" cy="7.848" r="7.848" transform="translate(37.611)"/></g><rect class="b" width="59.003" height="21.915" transform="translate(1112.781 369.212)"/><circle class="c" cx="52.188" cy="52.188" r="52.188" transform="translate(1135.538 89.272)"/><path class="c" d="M1176.911,88.539a101.3,101.3,0,0,0-86.092,47.831,6.6,6.6,0,0,0-.08,6.835,101.4,101.4,0,0,0,173.449,2.086,6.6,6.6,0,0,0,.08-6.835A101.322,101.322,0,0,0,1176.911,88.539Z" transform="translate(11.404 0.479)"/><circle class="c" cx="16.061" cy="16.061" r="16.061" transform="translate(1161.594 140.6)"/><path d="M1292.658,144.91l-.007.012c-.039,0-.08-.007-.119-.012v10.975a13.18,13.18,0,0,1,12.352,13.108V344.712a13.187,13.187,0,0,1-13.149,13.149H994.807a13.187,13.187,0,0,1-13.149-13.149V168.993a13.187,13.187,0,0,1,13.149-13.149h90.624V144.887H994.807A24.133,24.133,0,0,0,970.7,168.993V344.712a24.133,24.133,0,0,0,24.106,24.106h296.929a24.133,24.133,0,0,0,24.106-24.106V168.993A24.131,24.131,0,0,0,1292.658,144.91Z" transform="translate(0 5.873)"/></g></svg>