<svg xmlns="http://www.w3.org/2000/svg" xmlns:xlink="http://www.w3.org/1999/xlink" viewBox="0 0 1500 1045.6"><style>.st0{fill:#f0f8fe}.st2{stroke-linejoin:round;stroke-width:10}.st2,.st3{fill:none;stroke:#172838;stroke-linecap:round;stroke-miterlimit:10}.st3,.st4{stroke-width:10}.st4,.st9{stroke:#172838;stroke-linecap:round;stroke-miterlimit:10}.st4,.st9{fill:#afd1f1;stroke-linejoin:round}.st9{stroke-width:5;fill:#fff}.st15{opacity:.15;fill:#f0f8fe}.st16{fill:#ef6a22}.st17{fill:#f8f8f9}</style><g id="Layer_2"><path class="st0" d="M173.7 779.1h164.9v216H173.7z"/><path class="st0" d="M191 756h126.1v33.8H191z"/><path class="st0" d="M307.3 662h244v333.1h-244z"/><path class="st0" d="M338.6 631.5h182.2v131.9H338.6z"/><path class="st0" d="M435.7 581.2h154.2v138.5H435.7z"/><path class="st0" d="M453 561.4h119.5v168.2H453zm224.4 23.1H825v410.6H677.4z"/><path class="st0" d="M491.9 669.4h209.4V995H491.9zM825 766.7h105.5v228.4H825zm310.8 79.1h105.5V995h-105.5zM946.9 690.9h171.5v304.2H946.9z"/><path class="st0" d="M966.3 634.8H1099v360.3H966.3z"/><path class="st0" d="M984.8 568.9h95.6v298.4h-95.6z"/><path class="st0" d="M1004.6 540h56.1v183.8h-56.1z"/><path class="st0" d="M1030 441.1h5.3v213.5h-5.3zM929.6 714h206.1v281.1H929.6zM677.4 578.8v-79.2l116.3 116.3H677.4z"/><path class="st0" d="M825 578.8v-79.2L708.7 615.9H825z"/><circle class="st0" cx="512.8" cy="561.4" r="46.2"/></g><g id="Layer_1"><path d="M558 244.7v69.5h-45v75.5h-84v-75.5H270.5v-62l99.5-213h87l-93.5 205.5H429v-74.5h84v74.5h45zM865.8 82.2c26.8 30.7 40.2 74.7 40.2 132s-13.4 101.4-40.2 132.2c-26.8 30.8-65.1 46.2-114.8 46.2-50.3 0-88.9-15.4-115.7-46.2-26.8-30.8-40.2-74.9-40.2-132.2 0-57.3 13.4-101.3 40.2-132 26.8-30.7 65.4-46 115.7-46 49.7 0 87.9 15.3 114.8 46zm-162.3 47.7c-9.7 17.2-14.5 45.2-14.5 84.2 0 39.3 4.8 67.6 14.5 84.7 9.7 17.2 25.5 25.8 47.5 25.8 21.3 0 36.9-8.7 46.8-26 9.8-17.3 14.8-45.5 14.8-84.5s-4.9-67.1-14.8-84.2c-9.8-17.2-25.4-25.8-46.8-25.8-22 .1-37.8 8.7-47.5 25.8zM1213 244.7v69.5h-45v75.5h-84v-75.5H925.5v-62l99.5-213h87l-93.5 205.5h65.5v-74.5h84v74.5h45z" fill="#e0eefb"/><g id="UauHhC.tif"><image width="1628" height="290" id="Layer_0" xlink:href="AE10FB341D5C02AD.png" transform="matrix(.5 0 0 .5 1240.333 -473.997)" overflow="visible"/></g><path class="st2" d="M449 502.8l98-98m-98 0l98 98"/><path class="st3" d="M1280.9 992.8h77m-238.1.3h127m145.2-.3h27m-1290 .3h-20"/><path class="st2" d="M449 894.8h98v98h-98zm0-98h98v98h-98zm0-196h98v98h-98zm0-98h98v98h-98zm0-98h98v98h-98zm0-147h98v98h-98zm24-50h50v50h-50zm-24 148h98v49h-98zm98 0h98v49h-98zm98 0h98v49h-98zm98 0h98v49h-98zm98 0h98v49h-98zm-588 0h98v49h-98zm98 0h98v49h-98z"/><path class="st4" d="M587 405.1h-78c-5.5 0-10 4.5-10 10v78c0 5.5 4.5 10 10 10h78c5.5 0 10-4.5 10-10v-78c0-5.5-4.5-10-10-10zm-236-.3h-98v39c0 5.5 4.5 10 10 10h78c5.5 0 10-4.5 10-10v-39z"/><path d="M890 404.8h-98v15c0 5.5 4.5 10 10 10h78c5.5 0 10-4.5 10-10v-15z" fill="#afd1f1" stroke="#172838" stroke-width="10" stroke-miterlimit="10"/><path fill="none" stroke="#172838" stroke-width="8" stroke-linecap="round" stroke-linejoin="round" stroke-miterlimit="10" d="M841 429.8v146"/><path class="st2" d="M449 894.8l98-98m-98 0l98 98m-98 98l98-98m-98 0l98 98m-98-294l98-98m-98 0l98 98m-98-98l96.9-96.8m1.1 96.8l-98-98m0-98l98-49m-98 0l98 49m0-49l98 49m0-49l-98 49m98-49l98 49m-98 0l98-49m0 49l98-49m-98 0l98 49m0-49l98 49m-98 0l98-49m-588 49l98-49m-196 0l98 49m-98 0l98-49m98 49l-98-49m98 0l98-98m-98 0l98 98m-74-98l50-50m-50 0l50 50"/><path d="M252.5 356.3l220-148m50-1l416 148" fill="none" stroke-width="5" stroke-linejoin="round" stroke="#172838" stroke-linecap="round" stroke-miterlimit="10"/><path d="M987 772.8H695c-4.4 0-8 3.6-8 8v186c0 4.4 3.6 8 8 8h292c4.4 0 8-3.6 8-8v-186c0-4.4-3.6-8-8-8z" fill="#172838" stroke="#172838" stroke-width="5" stroke-linecap="round" stroke-linejoin="round" stroke-miterlimit="10"/><path class="st9" d="M987 775.6H695c-4.4 0-8 3.6-8 8v183.2c0 4.4 3.6 8 8 8h292c4.4 0 8-3.6 8-8V783.6c0-4.4-3.6-8-8-8z"/><path class="st4" d="M582 943.8H414c-5.5 0-10 4.5-10 10v29c0 5.5 4.5 10 10 10h168c5.5 0 10-4.5 10-10v-29c0-5.5-4.5-10-10-10z"/><path d="M743 588h196v44.9H743zm-29 247.8h70v41h-70zm0 60h70v41h-70zm92-60h70v41h-70zm91 0h70v41h-70z" fill="#e0eefb" stroke-width="4" stroke-linejoin="round" stroke="#172838" stroke-linecap="round" stroke-miterlimit="10"/><path d="M806 895.8h161m-161 14h146m-146 13h154m-154 14h81m28 0h30" fill="none" stroke-width="4" stroke-linejoin="round" stroke="#172838" stroke-linecap="round" stroke-miterlimit="10"/><path fill="#afd1f1" stroke="#172838" stroke-width="4" stroke-linecap="round" stroke-linejoin="round" stroke-miterlimit="10" d="M788 575.8h106v12H788z"/><path class="st2" d="M449 698.8h98v98h-98zm0 98l98-98m-98 0l98 98"/><path class="st9" d="M1025.5 975.3h-369c-4.4 0-8 3.6-8 8v1.5c0 4.4 3.6 8 8 8h369c4.4 0 8-3.6 8-8v-1.5c0-4.4-3.6-8-8-8z"/><path d="M873.5 980.8h-70c-1.9 0-3.5-1.6-3.5-3.5s1.6-3.5 3.5-3.5h70c1.9 0 3.5 1.6 3.5 3.5 0 2-1.6 3.5-3.5 3.5z" fill="#172838"/><path class="st3" d="M163.1 992.8h922.7"/><path d="M513 443.8V423c0-2.8 2.2-5 5-5h27.8M266 436.8V423c0-2.8 2.2-5 5-5h17m128 551.1v-9c0-2.8 2.2-5 5-5h27.8m129 10v-5c0-2.8-2.2-5-5-5H566" stroke="#e0eefb" fill="none" stroke-width="4" stroke-linejoin="round" stroke-linecap="round" stroke-miterlimit="10"/><path class="st15" d="M563.9 487.6H550v-5h13.9c4.1 0 7.5-3.4 7.5-7.5v-6h5v6c0 6.9-5.6 12.5-12.5 12.5z"/><path class="st15" d="M550 498.1h-5v-21.5c0-6.9 5.6-12.5 12.5-12.5H592v5h-34.5c-4.1 0-7.5 3.4-7.5 7.5v21.5z"/><path class="st16" d="M344.7 993.5h-39.9c-.8 0-1.5-.7-1.5-1.5s.7-1.5 1.5-1.5h39.9c.8 0 1.5.7 1.5 1.5s-.7 1.5-1.5 1.5zm-36.1-3.1h32.2l-2.4-8.6H311zm8-28.7l-3 10.6h22.2l-2.9-10.6zm10.7-20.3c-.7-2.6-4.3-2.6-5 0l-3 10.9h11.1l-3.1-10.9z"/><path class="st17" d="M311 981.8h27.4l-2.6-9.5h-22.2zm19.3-29.5h-11.1l-2.6 9.4h16.3z"/><path class="st16" d="M1021 975.6l20.9-26.9c.4-.6 1.3-.7 1.8-.2.6.4.7 1.3.2 1.8l-20.9 26.9c-.4.6-1.3.7-1.8.2-.5-.4-.6-1.2-.2-1.8z"/><path class="st16" d="M1041.9 952.9l-16.8 21.7 7.1 2.9 14.3-18.4zm15.3 20.4l-5.7-7.6-11.6 15 8.8 3.6zm8.1 17.8c2.1.9 4-1.6 2.6-3.4l-5.8-7.7-5.8 7.5 9 3.6z"/><path class="st17" d="M1046.5 959.1l-14.3 18.4 7.7 3.2 11.6-15zm9.9 28.4l5.8-7.5-5-6.7-8.5 11z"/><path class="st16" d="M660.5 970.8L631.9 990c-.6.4-1.4.2-1.8-.4-.4-.6-.2-1.4.4-1.8l28.6-19.2c.6-.4 1.4-.2 1.8.4.3.6.2 1.4-.4 1.8zm-27.3 15.1l23-15.4-5.9-5.1-19.6 13.2zm-8.1-24.4l3 9.1 15.9-10.7-7.3-6.2zm-2.2-19.6c-1.7-1.5-4.3.3-3.6 2.4l3.1 9.3 7.9-5.3-7.4-6.4z"/><path class="st17" d="M630.7 978.6l19.6-13.2-6.3-5.5-15.9 10.7zm-.4-30.4l-7.9 5.3 2.7 8 11.6-7.8z"/><path class="st16" d="M1335.6 993.1h-30.3c-.6 0-1.2-.5-1.2-1.2 0-.6.5-1.2 1.2-1.2h30.3c.6 0 1.2.5 1.2 1.2-.1.7-.6 1.2-1.2 1.2z"/><path class="st16" d="M1308.2 990.8h24.4l-1.8-6.6H1310zm6.1-21.8l-2.3 8.1h16.8l-2.2-8.1zm8-15.4c-.5-1.9-3.3-1.9-3.8 0l-2.3 8.3h8.4l-2.3-8.3z"/><path class="st17" d="M1310 984.2h20.8l-2-7.1H1312zm14.6-22.3h-8.4l-1.9 7.1h12.3z"/></g></svg>