<svg xmlns="http://www.w3.org/2000/svg" width="394.56" height="400" viewBox="0 0 394.56 400"><defs><style>.a{fill:#d4e1f4;}.b,.g{fill:none;}.b,.c{stroke:#000;stroke-miterlimit:10;stroke-width:3px;}.d{fill:#2f55d4;}.e{fill:#2eca8b;}.f{stroke:none;}</style></defs><g transform="translate(-95.151 -436.353)"><g transform="translate(103.663 436.353)"><path class="a" d="M490.8,787.455l-26.3-26.3a28.518,28.518,0,0,0-37.1-2.845l-17.951-17.951a61.378,61.378,0,0,0,9.5-65.256,157.844,157.844,0,0,0,3.4-31.892,155.494,155.494,0,0,0-41.767-106.984l33.386-53.462a23.656,23.656,0,1,0-11.793-7.265l-36.957,59.195-1.075,1.723-1.075,1.722,1.436,1.436,1.435,1.436,1.022,1.021A140.2,140.2,0,0,1,401.79,599.2a143.769,143.769,0,0,1,5.827,59.053q-.586-.621-1.177-1.213a60.579,60.579,0,0,0-32.267-16.938,109.485,109.485,0,0,0-1.91-18.037l-.252-1.342-.36-1.923-.361-1.923-1.95-.152-1.951-.152-18.333-1.433a87.265,87.265,0,0,0-22.363-35.487l6.592-17.194.681-1.778.681-1.777-1.508-1.16-1.509-1.161-1.107-.851-.022-.017-.044-.033a110.342,110.342,0,0,0-13.771-8.589,113.064,113.064,0,0,0-14.961-6.45l-1.3-.434L298.6,539.6,296.777,539l-1.089,1.582-1.09,1.582-10.469,15.2a87.919,87.919,0,0,0-41.929,1.708l-11.612-14.335-1.256-1.55-1.256-1.551-1.808.844-1.808.844-1.229.573A110.242,110.242,0,0,0,195.967,561.1l-.029.026-.06.053,0,0-.033.03-1.021.936-1.4,1.279-1.394,1.278.816,1.707.817,1.707,7.94,16.6a87.288,87.288,0,0,0-12.016,17.365,85.612,85.612,0,0,0-7.55,19.768l-18.186,2.864-1.9.3-1.9.3-.238,1.907-.238,1.908-.17,1.362,0,.02-.005.043a108.948,108.948,0,0,0,1.338,32.355l.25,1.334.36,1.923.361,1.923,1.95.152,1.951.152,18.333,1.432a87.263,87.263,0,0,0,22.363,35.488L199.718,722.5l-.681,1.778-.681,1.777,1.508,1.16,1.509,1.161,1.107.851.02.015.043.032a110.477,110.477,0,0,0,13.774,8.592,115.77,115.77,0,0,0,14.91,6.433l1.353.451,1.826.609,1.826.609,1.089-1.588,1.088-1.588,10.461-15.261a86.439,86.439,0,0,0,17.6,1.809,87.532,87.532,0,0,0,24.333-3.45l11.612,14.335,1.256,1.551,1.256,1.551,1.808-.844,1.808-.844,1.228-.573c1.81-.8,3.621-1.667,5.491-2.629a62.448,62.448,0,0,0,4.619,5.164,61.185,61.185,0,0,0,83.366,2.955L421.2,764.515a28.743,28.743,0,0,0,2.871,37.144l26.3,26.3A28.613,28.613,0,0,0,490.8,787.455ZM266.458,686.108a43.584,43.584,0,1,1,.085-87.167,43.584,43.584,0,1,1-.085,87.167Zm-50.826-70.4a57.48,57.48,0,0,0,87.91,70.686,61.673,61.673,0,0,0,2.888,36.964l-8.759-10.84-1.139-1.41-1.139-1.409-1.707.609-1.706.609-1.192.425a72.667,72.667,0,0,1-24.459,4.216,71.9,71.9,0,0,1-18.716-2.464l-1.29-.344-1.743-.466-1.744-.465-1.021,1.488-1.02,1.489-9.972,14.543a86.841,86.841,0,0,1-8.018-3.735c-2.671-1.393-5.246-2.9-7.688-4.493l6.316-16.591.649-1.7.649-1.7-1.4-1.166-1.4-1.167-1.021-.851a73.394,73.394,0,0,1-23.028-36.575l-.334-1.251-.466-1.746-.466-1.746-1.8-.142-1.8-.142L173.4,654.944a94.181,94.181,0,0,1-.724-17.8l17.375-2.769,1.754-.279,1.754-.28.348-1.742.348-1.741.255-1.277a73.8,73.8,0,0,1,7.177-20.763,72.6,72.6,0,0,1,12.964-17.657l.936-.936,1.279-1.28,1.28-1.28-.784-1.631-.784-1.632-7.61-15.843a94.394,94.394,0,0,1,15.021-9.474l11.082,13.714,1.139,1.41,1.139,1.409,1.706-.609,1.707-.609,1.192-.426a72.67,72.67,0,0,1,24.459-4.215,71.893,71.893,0,0,1,18.716,2.464l1.291.344,1.743.466,1.744.465,1.02-1.489,1.021-1.488,9.972-14.543a86.624,86.624,0,0,1,8.018,3.735c2.669,1.393,5.243,2.9,7.683,4.49l-6.309,16.5-.652,1.705-.652,1.705,1.4,1.169,1.4,1.169,1.021.851a73.394,73.394,0,0,1,23.028,36.575l.333,1.251.466,1.746.466,1.746,1.8.142,1.8.141,17.611,1.387a93.625,93.625,0,0,1,.8,9.436,60.74,60.74,0,0,0-37.5,15.239,57.534,57.534,0,0,0-29.474-62.831,56.186,56.186,0,0,0-26.631-6.628A57.416,57.416,0,0,0,215.632,615.712ZM396.577,733.656a47.2,47.2,0,1,1,.016-66.9A46.939,46.939,0,0,1,396.577,733.656Zm47.706,32.98a14.94,14.94,0,0,1,10.475,4.334l26.262,26.263A14.756,14.756,0,0,1,460.153,818.1l-26.3-26.3a14.727,14.727,0,0,1,10.434-25.16Zm-39.242-306.7a14.812,14.812,0,1,1,14.812,14.812,14.665,14.665,0,0,1-2.91-.292l-.553-.353-2.13-1.36-3.065-1.958-2.174-1.389-1.092-.7A14.676,14.676,0,0,1,405.04,459.932Z" transform="translate(-113.127 -436.353)"/><path class="a" d="M421.5,720.508l-1.806-1.805-2.589-2.588-1.806-1.806-1.805,1.806-44.836,44.849-1.806,1.806,1.806,1.806,2.589,2.588,1.806,1.805,1.806-1.806,44.836-44.849Z" transform="translate(-144.08 -477.7)"/><path class="a" d="M430.085,746.58l-1.806,1.806-23.893,23.9-1.806,1.806,1.806,1.806,2.589,2.588,1.806,1.806,1.806-1.806,23.893-23.9,1.805-1.806-1.806-1.805-2.589-2.588Z" transform="translate(-149.395 -482.501)"/><path class="a" d="M157.439,801.835V762.658l-.748-.747-.511-.511c-56.386-56.386-56.386-148.133,0-204.518l1.806-1.805-1.806-1.805-2.554-2.554-1.805-1.806-1.805,1.806a153.369,153.369,0,0,0-1.259,215.663v35.456a23.579,23.579,0,1,0,8.683,0Zm10.47,23.17A14.812,14.812,0,1,1,153.1,810.194,14.829,14.829,0,0,1,167.909,825.005Z" transform="translate(-105.151 -453.096)"/></g><line class="b" x2="27.41" y2="27.41" transform="translate(383.574 738.715)"/><path d="M463.6,814.914l-27.387-27.387-1.806-1.806-1.806,1.806-2.588,2.588-1.806,1.806,1.806,1.806L457.4,821.113l1.806,1.806,1.806-1.806,2.588-2.588,1.806-1.806Z" transform="translate(-49.543 -51.97)"/><path d="M524.335,845l-26.3-26.3a26.058,26.058,0,1,0-36.81,36.895l26.3,26.3A26.058,26.058,0,1,0,524.335,845Zm-44.708-25.179a17.477,17.477,0,0,1,12.26,5.061l26.283,26.282a17.31,17.31,0,0,1-24.48,24.48l-26.3-26.3a17.28,17.28,0,0,1,12.24-29.52Z" transform="translate(-53.32 -55.739)"/><g class="c" transform="translate(321.532 721.422) rotate(-45.008)"><rect class="f" width="63.417" height="3.66"/><rect class="g" x="-1.5" y="-1.5" width="66.417" height="6.66"/></g><g class="c" transform="translate(351.948 727.943) rotate(-45.008)"><rect class="f" width="33.794" height="3.66"/><rect class="g" x="-1.5" y="-1.5" width="36.794" height="6.66"/></g><path d="M146.18,761.4c-56.386-56.386-56.386-148.133,0-204.518l1.806-1.805-1.806-1.805-2.554-2.554-1.805-1.806-1.805,1.806a153.369,153.369,0,0,0-1.259,215.663v41.942h6.214v-1.277h1.192v-1.277h1.277v-43.11l-.748-.747Z" transform="translate(0 -16.743)"/><path class="d" d="M147.355,845.553a23.579,23.579,0,1,0,23.579,23.58A23.606,23.606,0,0,0,147.355,845.553Zm14.812,23.58a14.812,14.812,0,1,1-14.812-14.812A14.829,14.829,0,0,1,162.167,869.133Z" transform="translate(-4.258 -60.871)"/><path class="e" d="M291.219,620.289a53.7,53.7,0,0,0-25.446-6.336,54.978,54.978,0,1,0,25.446,6.336ZM306.586,690.4a46.069,46.069,0,1,1,3.224-35.173A46.006,46.006,0,0,1,306.586,690.4Z" transform="translate(-17.206 -26.419)"/><path class="e" d="M298.495,747.895l-12.365-15.3-1.139-1.409-1.706.609-1.192.426a75.243,75.243,0,0,1-25.318,4.364,74.441,74.441,0,0,1-19.381-2.553l-1.284-.342-1.743-.465-1.021,1.488-11.126,16.225a97.4,97.4,0,0,1-19.768-10.363l7.041-18.49.649-1.7-1.4-1.167-1.021-.851a75.991,75.991,0,0,1-23.856-37.866l-.337-1.264-.466-1.746-1.8-.142L161.62,675.8a96.667,96.667,0,0,1-.913-22.388l19.391-3.09,1.754-.28.348-1.742.255-1.277a76.244,76.244,0,0,1,7.419-21.447A75.168,75.168,0,0,1,203.293,607.3l.936-.936,1.28-1.279-.784-1.632-8.5-17.688a96.712,96.712,0,0,1,18.913-11.928l12.365,15.3,1.138,1.409,1.707-.609,1.192-.426a75.295,75.295,0,0,1,44.7-1.812l1.284.343,1.743.465,1.021-1.488,11.126-16.225a97.333,97.333,0,0,1,19.766,10.362l-7.036,18.4-.652,1.705,1.4,1.169,1.022.851a75.985,75.985,0,0,1,23.857,37.866l.337,1.264.466,1.746,1.8.142,19.639,1.546a96.342,96.342,0,0,1,1.09,19.342l.1,0a53.938,53.938,0,0,1,8.793.73,106.951,106.951,0,0,0-1.8-24.9l-.253-1.352-.361-1.923-1.95-.152-20.044-1.566A84.469,84.469,0,0,0,314.14,598.81l7.2-18.795.682-1.777-1.509-1.161-1.107-.851-.022-.017-.023-.017a107.846,107.846,0,0,0-13.428-8.372,110.317,110.317,0,0,0-14.588-6.289l-1.29-.43-1.822-.607-1.09,1.581L275.71,578.683a85.343,85.343,0,0,0-43.971,1.793L219.05,564.811l-1.256-1.551-1.809.844-1.251.585a107.631,107.631,0,0,0-26.657,16.817l-.031.027-.031.027-1.021.936-1.394,1.279.816,1.707,8.685,18.153a83.908,83.908,0,0,0-12.809,18.109,82.894,82.894,0,0,0-7.711,20.826L154.7,645.7l-1.9.3-.238,1.907-.17,1.362,0,.022,0,.021a106.361,106.361,0,0,0,1.308,31.573l.253,1.348.361,1.923,1.95.152,20.044,1.565a84.467,84.467,0,0,0,23.451,37.214l-7.2,18.795-.682,1.777,1.509,1.161,1.107.851.022.017.023.017a107.837,107.837,0,0,0,13.428,8.372,112.949,112.949,0,0,0,14.563,6.28l1.314.438,1.826.609,1.088-1.588,11.434-16.68a83.707,83.707,0,0,0,18.732,2.118,84.941,84.941,0,0,0,25.239-3.834l12.69,15.665,1.256,1.551,1.809-.844,1.251-.584a107.628,107.628,0,0,0,11.434-5.906,53.527,53.527,0,0,1-4.721-7.344Q302.269,746.088,298.495,747.895Z" transform="translate(-8.423 -18.467)"/><path d="M420.1,694.73A58.708,58.708,0,1,0,437.256,736.2,58.265,58.265,0,0,0,420.1,694.73Zm-6.25,76.612a49.756,49.756,0,1,1,.008-70.524A49.479,49.479,0,0,1,413.85,771.342Z" transform="translate(-33.444 -35.88)"/><path d="M397.776,804.971l.578.577,1.8,1.8,1.806-1.8c.616-.616,1.219-1.242,1.823-1.867A51.425,51.425,0,0,1,397.776,804.971Z" transform="translate(-45.017 -54.642)"/><g transform="translate(348.326 436.353)"><path d="M395.026,546.372a144.626,144.626,0,0,1,39,133.031,51.414,51.414,0,0,1,5.51,13.755,154.636,154.636,0,0,0-4.309-101.268,151.994,151.994,0,0,0-31.6-49.2l36.312-58.148,1.338-2.144-2.13-1.36-3.064-1.958-2.174-1.389-1.367,2.189-38.9,62.311-1.075,1.723L394,545.351Z" transform="translate(-392.568 -442.503)"/><path class="d" d="M451.356,436.353a23.579,23.579,0,1,0,23.579,23.579A23.606,23.606,0,0,0,451.356,436.353Zm14.812,23.579a14.83,14.83,0,1,1-4.357-10.481A14.829,14.829,0,0,1,466.167,459.932Z" transform="translate(-397.805 -436.353)"/></g></g></svg>