<svg version="1.1" id="Layer_1" xmlns="http://www.w3.org/2000/svg" x="0" y="0" viewBox="0 0 394.6 400" xml:space="preserve"><style>.st0{fill:#d4e1f4}.st1{fill:none;stroke:#000;stroke-width:3;stroke-miterlimit:10}.st2{fill:#2f55d4}.st3{fill:#2eca8b}</style><path class="st0" d="M74.6 37.3c-3.5-1.9-7.4-2.8-11.3-2.8-13.5 0-24.5 10.9-24.6 24.4 0 13.5 10.9 24.5 24.4 24.6 13.5 0 24.5-10.9 24.6-24.4-.1-9.2-5.1-17.6-13.1-21.8zm6.8 31.2c-5.3 10-17.7 13.9-27.7 8.6-10-5.3-13.9-17.7-8.6-27.7 5.3-10 17.7-13.9 27.7-8.6 4.8 2.5 8.4 6.9 10 12 1.6 5.2 1.1 10.9-1.4 15.7z"/><path class="st0" d="M108.7 66.6l-8.1-3.9c.2-3.3.1-6.6-.6-9.9-.6-3.3-1.7-6.3-3.2-9.3l6.1-6.6.6-.7-.5-.7-.3-.5c-2.5-4-5.5-7.7-9.1-10.7l-.5-.4-.7-.6-.7.5-7.5 5.2c-5.5-3.7-11.8-6.1-18.4-6.5L63.1 14l-.3-.8h-1.4c-2.3.1-4.7.4-7 .8-2.3.5-4.6 1.1-6.8 1.9l-.6.1-.9.4.1.9.6 8.8c-6 2.9-11 7.3-14.8 12.8L23.3 37l-.8-.2-.5.8-.3.5c-1.1 2.1-2 4.2-2.8 6.5-.8 2.2-1.4 4.5-1.8 6.8l-.1.6-.1.8.8.4 8 3.9c-.2 2.8 0 5.7.4 8.4.6 3.8 1.7 7.4 3.3 10.9l-6 6.6-.6.6.5.8.3.5c.5.8 1.1 1.6 1.7 2.4.5.8 1.1 1.5 1.7 2.2 1.8 2.1 3.8 4.1 5.9 5.9l.5.4.7.6.7-.5 7.4-5c5.5 3.7 11.9 6 18.5 6.4l2.7 8.5.3.8h1.4c2.3-.1 4.7-.4 7-.8.9-.2 1.8-.4 2.6-.6 1.4-.3 2.8-.7 4.1-1.2l.6-.2.8-.3-.1-.9-.6-9c6-2.9 11-7.3 14.8-12.8l8.8 1.9.8.2.4-.7.3-.5c1.1-2.1 2-4.2 2.8-6.5.3-.8.5-1.5.7-2.3.5-1.5.8-3.1 1.1-4.6l.1-.6.1-.8-.7-.3zM63.8 94.4l-.2-.8h-1.4c-6.8-.3-13.4-2.6-18.8-6.6l-.5-.3-.6-.5-.7.5-7.3 4.9c-1.7-1.5-3.3-3.2-4.8-4.9-.3-.3-.5-.6-.7-.9l-.1-.1c-.1-.1-.2-.2-.2-.3l.1-.1h-.1c-.2-.3-.5-.7-.7-1l5.9-6.5.5-.6-.5-.9-.3-.5c-1.8-3.4-3-7.1-3.6-10.9-.4-2.9-.5-5.8-.1-8.7l.1-.6.1-.8-.8-.4-7.8-3.7c.5-2.1 1.1-4.2 1.9-6.3.4-1.1.8-2 1.3-3.1l8.6 1.9.7.2.5-.8.3-.5c1.2-1.9 2.6-3.8 4.2-5.4l.4-.4.2-.2c2.9-2.9 6.4-5.3 10.2-6.9l.5-.2.8-.3-.1-.8-.7-8.6c3.1-1 6.6-1.7 9.8-2l2.5 8.3.3.9h1.5c3.4.1 6.7.7 9.9 1.8.2.1.5.2.7.3 2.8 1.1 5.5 2.5 8 4.3.1 0 .1.1.2.1l.5.3.6.5.7-.5 7.2-4.9c2.4 2.2 4.6 4.8 6.5 7.5l-5.9 6.5-.5.6.4.7.3.5c1 1.8 1.7 3.7 2.4 5.6 0 .1.1.2.1.3 0 .1 0 .1.1.2.3 1.1.6 2.3.9 3.5.6 3.3.8 6.7.4 10l-.1.6-.1.6.1.1.7.3.5.3 7.2 3.5c-.7 3.2-1.8 6.4-3.2 9.4l-8.6-1.9-.8-.2-.4.7-.3.5c-3.6 5.8-8.9 10.3-15.1 13l-.4.3-.7.3.1.8.6 8.7c-1.5.5-3.1.9-4.7 1.2-1.6.3-3.3.5-4.9.7l-2.8-8.3z"/><path class="st0" d="M282.5-85.3l-26.3-26.3c-10-10-25.7-11.2-37.1-2.8l-18-18a61.36 61.36 0 009.5-65.3c2.2-10.5 3.4-21.2 3.4-31.9.2-39.7-14.7-78-41.8-107l33.4-53.5c12.6 3.3 25.6-4.3 28.9-16.9 3.3-12.6-4.3-25.6-16.9-28.9-12.6-3.3-25.6 4.3-28.9 16.9-2 7.6-.1 15.7 5.1 21.6l-37 59.2-1.1 1.7-1.1 1.7 1.4 1.4 1.4 1.4 1 1c16.1 16 28 35.6 34.8 57.2 6 19.1 8 39.2 5.8 59.1l-1.2-1.2c-8.8-8.8-20-14.7-32.3-16.9-.1-6.1-.8-12.1-1.9-18l-.3-1.3-.4-1.9-.4-1.9-2-.2-2-.2-18.3-1.4c-4.5-13.5-12.1-25.7-22.4-35.5l6.6-17.2.7-1.8.7-1.8-1.5-1.2-1.5-1.2-1.1-.9c-4.4-3.2-9-6.1-13.8-8.6-4.8-2.5-9.8-4.7-15-6.5l-1.3-.4-1.8-.6-1.8-.6-1.1 1.6-1.1 1.6-10.5 15.2c-13.9-2.8-28.3-2.2-41.9 1.7L22.3-328l-1.3-1.5-1.3-1.6-1.8.8-1.8.8-1.2.6c-9.9 4.4-19.1 10.2-27.3 17.2l-.1.1-1 .9-1.4 1.3-1.4 1.3.8 1.7.8 1.7 7.9 16.6c-4.7 5.3-8.7 11.1-12 17.4-3.3 6.3-5.9 12.9-7.6 19.8l-18.2 2.9-1.9.3-1.9.3-.2 1.9-.2 1.9-.2 1.4c-1.2 10.8-.7 21.7 1.3 32.4l.2 1.3.4 1.9.4 1.9 1.9.2 2 .2 18.3 1.4c4.5 13.5 12.1 25.7 22.4 35.5l-6.6 17.2-.7 1.8-.7 1.8 1.5 1.2 1.5 1.2 1.1.9c4.4 3.2 9 6.1 13.8 8.6 4.8 2.5 9.8 4.6 14.9 6.4l1.4.5 1.8.6 1.8.6 1.1-1.6 1.1-1.6 10.5-15.3c5.8 1.2 11.7 1.8 17.6 1.8 8.2 0 16.4-1.2 24.3-3.5l11.6 14.3 1.3 1.6 1.3 1.6 1.8-.8 1.8-.8 1.2-.6c1.8-.8 3.6-1.7 5.5-2.6 1.4 1.8 3 3.5 4.6 5.2 22.7 22.7 59.1 24 83.4 3l18 18c-8.3 11.4-7.1 27.1 2.9 37.1L242-44.5c11.2 11.2 29.3 11.1 40.5 0 11.2-11.5 11.2-29.6 0-40.8zM58.2-186.6c-24.1.1-43.7-19.4-43.7-43.4-.1-24.1 19.4-43.7 43.4-43.7h.4c24.1-.1 43.7 19.4 43.7 43.4s-19.4 43.7-43.4 43.7h-.4zM7.4-257c-14.8 28.1-3.9 62.9 24.2 77.6 20.7 10.8 45.9 8.1 63.7-6.9-2.9 12.3-1.8 25.2 2.9 37l-8.8-10.8-1.1-1.4-1.1-1.4-1.7.6-1.7.6-1.2.4c-7.9 2.8-16.1 4.2-24.5 4.2-6.3 0-12.6-.8-18.7-2.5L38-160l-1.7-.5-1.7-.5-1 1.5-1 1.5-10 14.5c-2.7-1.1-5.4-2.4-8-3.7-2.7-1.4-5.2-2.9-7.7-4.5l6.3-16.6.6-1.7.6-1.7-1.4-1.2-1.4-1.2-1-.9c-11.2-9.6-19.2-22.3-23-36.6l-.3-1.3-.5-1.7-.5-1.7-1.8-.1-1.8-.1-17.6-1.4c-.8-5.9-1-11.9-.7-17.8l17.4-2.8 1.8-.3 1.8-.3.3-1.7.3-1.7.3-1.3c1.3-7.2 3.8-14.2 7.2-20.8 3.4-6.5 7.8-12.5 13-17.7l.9-.9 1.3-1.3 1.3-1.3-.8-1.6-.8-1.6-7.6-15.8c4.7-3.6 9.7-6.8 15-9.5l11.1 13.7 1.1 1.4 1.1 1.4 1.7-.6 1.7-.6 1.2-.4c7.9-2.8 16.1-4.2 24.5-4.2 6.3 0 12.6.8 18.7 2.5l1.3.3 1.7.5 1.7.5 1-1.5 1-1.5 10-14.5c2.7 1.1 5.4 2.4 8 3.7 2.7 1.4 5.2 2.9 7.7 4.5l-6.3 16.5-.7 1.7-.7 1.7 1.4 1.2 1.4 1.2 1 .9c11.2 9.6 19.2 22.3 23 36.6l.3 1.3.5 1.7.5 1.7 1.8.1 1.8.1 17.6 1.4c.4 3.1.7 6.3.8 9.4-13.9.6-27.1 6-37.5 15.2 5.3-25.2-6.7-50.8-29.5-62.8-8.2-4.4-17.3-6.7-26.6-6.6-21.2.1-40.8 11.9-50.7 30.8zm180.9 118c-18.5 18.4-48.4 18.3-66.8-.2s-18.3-48.4.2-66.8c18.4-18.3 48.2-18.3 66.6 0 18.5 18.2 18.7 47.9.5 66.4-.2.2-.3.4-.5.6zm47.7 32.9c3.9 0 7.7 1.6 10.5 4.3l26.3 26.3c5.7 5.8 5.6 15.2-.2 20.9-5.7 5.6-14.9 5.6-20.6 0l-26.3-26.3c-5.8-5.7-5.8-15.1 0-20.8 2.6-2.8 6.4-4.4 10.3-4.4zm-39.2-306.7c0-8.2 6.6-14.8 14.8-14.8s14.8 6.6 14.8 14.8c0 8.2-6.6 14.8-14.8 14.8-1 0-2-.1-2.9-.3l-.6-.4-2.1-1.3-3.1-2-2.2-1.4-1.1-.7c-1.8-2.4-2.8-5.5-2.8-8.7z" transform="translate(103.663 436.353)"/><path class="st0" d="M182.3-193.5l-1.8-1.8-2.6-2.6-1.8-1.8-1.8 1.8-44.8 44.8-1.8 1.8 1.8 1.8 2.6 2.6 1.8 1.8 1.8-1.8 44.8-44.8 1.8-1.8zm3.2 21.2l-1.8 1.8-23.9 23.9-1.8 1.8 1.8 1.8 2.6 2.6 1.8 1.8 1.8-1.8 23.9-23.9 1.8-1.8-1.8-1.8-2.6-2.6-1.8-1.8zM-42.9-87.6v-39.2l-.7-.7-.5-.5c-56.4-56.4-56.4-148.1 0-204.5l1.8-1.8-1.8-1.8-2.6-2.6-1.8-1.8-1.8 1.8c-59.4 59.4-60 155.6-1.3 215.7v35.5C-64.4-85.1-72.8-72.8-70.4-60c2.4 12.8 14.7 21.2 27.5 18.8C-30.1-43.7-21.6-56-24-68.8c-1.8-9.5-9.3-17-18.9-18.8zm10.5 23.2c0 8.2-6.6 14.8-14.8 14.8-8.2 0-14.8-6.6-14.8-14.8 0-8.2 6.6-14.8 14.8-14.8 8.2 0 14.8 6.6 14.8 14.8z" transform="translate(103.663 436.353)"/><path class="st1" d="M288.4 302.4l27.4 27.4"/><path d="M318.9 326.6l-27.4-27.4-1.8-1.8-1.8 1.8-2.6 2.6-1.8 1.8 1.8 1.8 27.4 27.4 1.8 1.8 1.8-1.8 2.6-2.6 1.8-1.8-1.8-1.8z"/><path d="M375.9 352.9l-26.3-26.3c-10.2-10.2-26.7-10.1-36.9 0-10.2 10.2-10.1 26.7 0 36.9l26.3 26.3c10.2 10.2 26.7 10.1 36.9 0 10.2-10.2 10.2-26.7 0-36.9zm-44.7-25.2c4.6 0 9 1.8 12.3 5.1l26.3 26.3c6.7 6.8 6.7 17.7 0 24.5-6.8 6.7-17.7 6.7-24.4 0l-26.3-26.3c-6.8-6.7-6.8-17.7 0-24.4 3-3.3 7.5-5.2 12.1-5.2z"/><path transform="rotate(134.992 129.42 -59.765)" d="M241.3-375.8h63.4v3.7h-63.4z"/><path transform="rotate(134.992 129.42 -59.765)" class="st1" d="M239.8-377.3h66.4v6.7h-66.4z"/><path transform="rotate(134.992 128.465 -44.067)" d="M241.3-375.8h33.8v3.7h-33.8z"/><path transform="rotate(134.992 128.465 -44.067)" class="st1" d="M239.8-377.3h36.8v6.7h-36.8z"/><path d="M51 308.3c-56.4-56.4-56.4-148.1 0-204.5l1.8-1.8-1.8-1.8-2.6-2.6-1.8-1.8-1.8 1.8c-59.4 59.4-60 155.6-1.3 215.7v41.9h6.2V354H51v-1.3h1.3v-43.1l-.7-.7-.6-.6z"/><path class="st2" d="M47.9 348.3c-13 0-23.6 10.6-23.6 23.6 0 13 10.6 23.6 23.6 23.6 13 0 23.6-10.6 23.6-23.6 0-13-10.5-23.6-23.6-23.6zm14.9 23.6c0 8.2-6.6 14.8-14.8 14.8s-14.8-6.6-14.8-14.8c0-8.2 6.6-14.8 14.8-14.8 8.1 0 14.7 6.6 14.8 14.8z"/><path class="st3" d="M178.9 157.5c-7.8-4.2-16.6-6.4-25.4-6.3-30.4-.1-55.1 24.4-55.2 54.8-.1 30.4 24.4 55.1 54.8 55.2 30.4.1 55.1-24.4 55.2-54.8 0-20.5-11.3-39.3-29.4-48.9zm15.3 70.1c-11.9 22.5-39.7 31.1-62.2 19.3-22.5-11.9-31.1-39.7-19.3-62.2 11.9-22.5 39.7-31.1 62.2-19.3 10.8 5.7 18.9 15.4 22.5 27.1 3.7 11.6 2.5 24.3-3.2 35.1zM70.6 37.3c-3.5-1.9-7.4-2.8-11.3-2.8-13.5 0-24.5 10.9-24.6 24.4 0 13.5 10.9 24.5 24.4 24.6 13.5 0 24.5-10.9 24.6-24.4-.1-9.2-5.1-17.6-13.1-21.8zm6.8 31.2c-5.3 10-17.7 13.9-27.7 8.6-10-5.3-13.9-17.7-8.6-27.7 5.3-10 17.7-13.9 27.7-8.6 4.8 2.5 8.4 6.9 10 12 1.6 5.2 1.1 10.9-1.4 15.7z"/><path class="st3" d="M194.9 293.1l-12.4-15.3-1.1-1.4-1.7.6-1.2.4c-8.1 2.9-16.7 4.4-25.3 4.4-6.5 0-13.1-.9-19.4-2.6l-1.3-.3-1.7-.5-1 1.5-11.1 16.2c-7-2.7-13.6-6.2-19.8-10.4l7-18.5.6-1.7-1.4-1.2-1-.9c-11.6-9.9-19.9-23.1-23.9-37.9l-.3-1.3-.5-1.7-1.8-.1L58 221c-1.2-7.4-1.5-14.9-.9-22.4l19.4-3.1 1.8-.3.3-1.7.3-1.3c1.4-7.5 3.9-14.7 7.4-21.4 3.5-6.7 8-12.9 13.4-18.3l.9-.9 1.3-1.3-.8-1.6-8.5-17.7c5.8-4.7 12.2-8.7 18.9-11.9l12.4 15.3 1.1 1.4 1.7-.6 1.2-.4c14.4-5.1 30-5.8 44.7-1.8l1.3.3 1.7.5 1-1.5 11.1-16.2c7 2.7 13.6 6.2 19.8 10.4l-7 18.4-.7 1.7 1.4 1.2 1 .9c11.6 9.9 19.9 23.1 23.9 37.9l.3 1.3.5 1.7 1.8.1 19.6 1.5c1 6.4 1.4 12.9 1.1 19.3h.1c2.9 0 5.9.2 8.8.7.4-8.3-.2-16.7-1.8-24.9l-.3-1.4-.4-1.9-2-.2-20-1.6c-4.4-14.3-12.5-27.1-23.4-37.2l7.2-18.8.7-1.8-1.5-1.2-1.1-.9c-4.3-3.1-8.8-5.9-13.4-8.4-4.7-2.4-9.6-4.5-14.6-6.3l-1.3-.4-1.8-.6-1.1 1.6-11.4 16.6c-14.6-3.3-29.7-2.6-44 1.8L115.5 110l-1.3-1.6-1.8.8-1.3.6c-9.7 4.3-18.6 9.9-26.7 16.8l-1 .9L82 129l.8 1.7 8.7 18.2c-5.1 5.4-9.4 11.5-12.8 18.1-3.5 6.6-6.1 13.6-7.7 20.8l-19.9 3.1-1.9.3-.2 1.9-.2 1.4c-1.1 10.5-.7 21.2 1.3 31.6l.3 1.3.4 1.9 1.9.2 20 1.6c4.4 14.3 12.5 27.1 23.5 37.2L89 287.1l-.7 1.8 1.5 1.2 1.1.9c4.3 3.1 8.8 5.9 13.4 8.4 4.7 2.4 9.6 4.5 14.6 6.3l1.3.4 1.8.6 1.1-1.6 11.4-16.7c6.1 1.4 12.4 2.1 18.7 2.1 8.6 0 17.1-1.3 25.2-3.8l12.7 15.7 1.3 1.6 1.8-.8 1.3-.6c3.9-1.7 7.7-3.7 11.4-5.9-1.8-2.3-3.3-4.8-4.7-7.3-2.3 1.2-4.8 2.5-7.3 3.7zM104.7 66.6l-8.1-3.9c.2-3.3.1-6.6-.6-9.9-.6-3.3-1.7-6.3-3.2-9.3l6.1-6.6.6-.7-.5-.7-.3-.5c-2.5-4-5.5-7.7-9.1-10.7l-.5-.4-.7-.6-.7.5-7.5 5.2c-5.5-3.7-11.8-6.1-18.4-6.5L59.1 14l-.3-.8h-1.4c-2.3.1-4.7.4-7 .8-2.3.5-4.6 1.1-6.8 1.9l-.6.1-.9.4.1.9.6 8.8c-6 2.9-11 7.3-14.8 12.8L19.3 37l-.8-.2-.5.8-.3.5c-1.1 2.1-2 4.2-2.8 6.5-.8 2.2-1.4 4.5-1.8 6.8l-.1.6-.1.8.8.4 8 3.9c-.2 2.8 0 5.7.4 8.4.6 3.8 1.7 7.4 3.3 10.9l-6 6.6-.6.6.5.8.3.5c.5.8 1.1 1.6 1.7 2.4.5.8 1.1 1.5 1.7 2.2 1.8 2.1 3.8 4.1 5.9 5.9l.5.4.7.6.7-.5 7.4-5c5.5 3.7 11.9 6 18.5 6.4l2.7 8.5.3.8h1.4c2.3-.1 4.7-.4 7-.8.9-.2 1.8-.4 2.6-.6 1.4-.3 2.8-.7 4.1-1.2l.6-.2.8-.3-.1-.9-.6-9c6-2.9 11-7.3 14.8-12.8l8.8 1.9.8.2.4-.7.3-.5c1.1-2.1 2-4.2 2.8-6.5.3-.8.5-1.5.7-2.3.5-1.5.8-3.1 1.1-4.6l.1-.6.1-.8-.7-.3zM59.8 94.4l-.2-.8h-1.4c-6.8-.3-13.4-2.6-18.8-6.6l-.5-.3-.6-.5-.7.5-7.3 4.9c-1.7-1.5-3.3-3.2-4.8-4.9-.3-.3-.5-.6-.7-.9l-.1-.1c-.1-.1-.2-.2-.2-.3l.1-.1h-.1c-.2-.3-.5-.7-.7-1l5.9-6.5.5-.6-.5-.9-.3-.5c-1.8-3.4-3-7.1-3.6-10.9-.4-2.9-.5-5.8-.1-8.7l.1-.6.1-.8-.8-.4-7.8-3.7c.5-2.1 1.1-4.2 1.9-6.3.4-1.1.8-2 1.3-3.1l8.6 1.9.7.2.5-.8.3-.5c1.2-1.9 2.6-3.8 4.2-5.4l.4-.4.2-.2c2.9-2.9 6.4-5.3 10.2-6.9l.5-.2.8-.3-.1-.8-.7-8.6c3.1-1 6.6-1.7 9.8-2l2.5 8.3.3.9h1.5c3.4.1 6.7.7 9.9 1.8.2.1.5.2.7.3 2.8 1.1 5.5 2.5 8 4.3.1 0 .1.1.2.1l.5.3.6.5.7-.5 7.2-4.9c2.4 2.2 4.6 4.8 6.5 7.5l-5.9 6.5-.5.6.4.7.3.5c1 1.8 1.7 3.7 2.4 5.6 0 .1.1.2.1.3 0 .1 0 .1.1.2.3 1.1.6 2.3.9 3.5.6 3.3.8 6.7.4 10l-.1.6-.1.6.1.1.7.3.5.3 7.2 3.5c-.7 3.2-1.8 6.4-3.2 9.4l-8.6-1.9-.8-.2-.4.7-.3.5c-3.6 5.8-8.9 10.3-15.1 13l-.4.3-.7.3.1.8.6 8.7c-1.5.5-3.1.9-4.7 1.2-1.6.3-3.3.5-4.9.7l-2.8-8.3z"/><path d="M291.5 222.5c-22.9-22.9-60.1-23-83-.1s-23 60.1-.1 83 60.1 23 83 .1c11-11 17.2-26 17.2-41.6.1-15.5-6.1-30.4-17.1-41.4zm-6.2 76.6c-19.5 19.4-51 19.3-70.4-.2-19.4-19.5-19.3-51 .2-70.4 19.4-19.3 50.8-19.3 70.2 0 19.5 19.2 19.7 50.5.5 70-.2.2-.4.4-.5.6z"/><path d="M257.6 314l.6.6 1.8 1.8 1.8-1.8c.6-.6 1.2-1.2 1.8-1.9-2 .5-4 1-6 1.3z"/><path d="M-92.7-332.5c34.8 34.8 49.5 84.9 39 133 2.5 4.3 4.3 8.9 5.5 13.8 10-33.3 8.5-69-4.3-101.3-7.2-18.3-18-35-31.6-49.2l36.3-58.1 1.3-2.1-2.1-1.4-3.1-2-2.2-1.4-1.4 2.2-38.9 62.3-1.1 1.7 1.4 1.4 1.2 1.1z" transform="translate(348.326 436.353)"/><path class="st2" d="M-41.6-436.4c-13 0-23.6 10.6-23.6 23.6 0 13 10.6 23.6 23.6 23.6 13 0 23.6-10.6 23.6-23.6 0-13-10.6-23.5-23.6-23.6zm14.8 23.6c0 8.2-6.6 14.8-14.8 14.8-8.2 0-14.8-6.6-14.8-14.8 0-8.2 6.6-14.8 14.8-14.8 3.9 0 7.7 1.6 10.5 4.3 2.7 2.8 4.3 6.6 4.3 10.5z" transform="translate(348.326 436.353)"/></svg>