<?xml version="1.0" encoding="utf-8"?>
<!-- Generator: Adobe Illustrator 24.2.0, SVG Export Plug-In . SVG Version: 6.00 Build 0)  -->
<svg version="1.1" id="Layer_1" xmlns="http://www.w3.org/2000/svg" xmlns:xlink="http://www.w3.org/1999/xlink" x="0px" y="0px"
	 viewBox="0 0 394.6 400" style="enable-background:new 0 0 394.6 400;" xml:space="preserve">
<style type="text/css">
	.st0{fill:#D4E1F4;}
	.st1{fill:none;stroke:#000000;stroke-width:3;stroke-miterlimit:10;}
	.st2{fill:#2F55D4;}
	.st3{fill:#2ECA8B;}
</style>
<path class="st0" d="M74.6,37.3c-3.5-1.9-7.4-2.8-11.3-2.8c-13.5,0-24.5,10.9-24.6,24.4c0,13.5,10.9,24.5,24.4,24.6
	c13.5,0,24.5-10.9,24.6-24.4C87.6,49.9,82.6,41.5,74.6,37.3z M81.4,68.5c-5.3,10-17.7,13.9-27.7,8.6c-10-5.3-13.9-17.7-8.6-27.7
	c5.3-10,17.7-13.9,27.7-8.6c4.8,2.5,8.4,6.9,10,12C84.4,58,83.9,63.7,81.4,68.5z"/>
<path class="st0" d="M108.7,66.6l-8.1-3.9c0.2-3.3,0.1-6.6-0.6-9.9c-0.6-3.3-1.7-6.3-3.2-9.3l6.1-6.6l0.6-0.7l-0.5-0.7l-0.3-0.5
	c-2.5-4-5.5-7.7-9.1-10.7l-0.5-0.4l-0.7-0.6l-0.7,0.5L84.2,29c-5.5-3.7-11.8-6.1-18.4-6.5l-2.7-8.5l-0.3-0.8l-0.8,0l-0.6,0l0,0l0,0
	c-2.3,0.1-4.7,0.4-7,0.8c-2.3,0.5-4.6,1.1-6.8,1.9L47,16l-0.9,0.4l0.1,0.9l0.6,8.8c-6,2.9-11,7.3-14.8,12.8L23.3,37l-0.8-0.2l0,0
	l0,0L22,37.6l-0.3,0.5l0,0l0,0c-1.1,2.1-2,4.2-2.8,6.5c-0.8,2.2-1.4,4.5-1.8,6.8L17,52l-0.1,0.8l0.8,0.4l8,3.9
	c-0.2,2.8,0,5.7,0.4,8.4c0.6,3.8,1.7,7.4,3.3,10.9l-6,6.6l-0.6,0.6l0.5,0.8l0.3,0.5c0.5,0.8,1.1,1.6,1.7,2.4c0,0,0,0,0,0
	c0.5,0.8,1.1,1.5,1.7,2.2c0,0,0,0,0,0l0,0c1.8,2.1,3.8,4.1,5.9,5.9l0.5,0.4l0.7,0.6l0.7-0.5l7.4-5c5.5,3.7,11.9,6,18.5,6.4l2.7,8.5
	l0.3,0.8l0.8,0l0.6,0l0,0l0,0c2.3-0.1,4.7-0.4,7-0.8c0.9-0.2,1.8-0.4,2.6-0.6c1.4-0.3,2.8-0.7,4.1-1.2l0.6-0.2l0.8-0.3l-0.1-0.9
	l-0.6-9c6-2.9,11-7.3,14.8-12.8l8.8,1.9l0.8,0.2l0.4-0.7l0.3-0.5l0,0l0,0c1.1-2.1,2-4.2,2.8-6.5c0.3-0.8,0.5-1.5,0.7-2.3
	c0.5-1.5,0.8-3.1,1.1-4.6l0,0l0,0l0.1-0.6l0.1-0.8L108.7,66.6z M63.8,94.4l-0.2-0.8l-0.8,0l-0.6,0C55.4,93.3,48.8,91,43.4,87
	l-0.5-0.3l-0.6-0.5l-0.7,0.5l-7.3,4.9c-1.7-1.5-3.3-3.2-4.8-4.9c-0.3-0.3-0.5-0.6-0.7-0.9c0,0-0.1-0.1-0.1-0.1
	c-0.1-0.1-0.2-0.2-0.2-0.3l0.1-0.1c0,0,0,0-0.1,0c-0.2-0.3-0.5-0.7-0.7-1l5.9-6.5l0.5-0.6l-0.5-0.9l-0.3-0.5
	c-1.8-3.4-3-7.1-3.6-10.9c-0.4-2.9-0.5-5.8-0.1-8.7l0.1-0.6l0.1-0.8l-0.8-0.4l-7.8-3.7c0.5-2.1,1.1-4.2,1.9-6.3
	c0.4-1.1,0.8-2,1.3-3.1l8.6,1.9l0.7,0.2l0.5-0.8l0.3-0.5c1.2-1.9,2.6-3.8,4.2-5.4c0.1-0.1,0.3-0.3,0.4-0.4c0.1-0.1,0.2-0.2,0.2-0.2
	c2.9-2.9,6.4-5.3,10.2-6.9l0.5-0.2l0.8-0.3l-0.1-0.8l-0.7-8.6c3.1-1,6.6-1.7,9.8-2l2.5,8.3l0.3,0.9l0.9,0l0.6,0
	c3.4,0.1,6.7,0.7,9.9,1.8c0.2,0.1,0.5,0.2,0.7,0.3c2.8,1.1,5.5,2.5,8,4.3c0.1,0,0.1,0.1,0.2,0.1l0.5,0.3l0.6,0.5l0.7-0.5l7.2-4.9
	c2.4,2.2,4.6,4.8,6.5,7.5l-5.9,6.5l-0.5,0.6l0.4,0.7l0.3,0.5c1,1.8,1.7,3.7,2.4,5.6c0,0.1,0.1,0.2,0.1,0.3c0,0.1,0,0.1,0.1,0.2
	c0.3,1.1,0.6,2.3,0.9,3.5c0.6,3.3,0.8,6.7,0.4,10l-0.1,0.6L96.5,65l0.1,0.1l0,0l0.7,0.3l0.5,0.3l7.2,3.5c-0.7,3.2-1.8,6.4-3.2,9.4
	l-8.6-1.9l-0.8-0.2l-0.4,0.7l-0.3,0.5c-3.6,5.8-8.9,10.3-15.1,13L76.2,91l-0.7,0.3l0.1,0.8l0.6,8.7c-1.5,0.5-3.1,0.9-4.7,1.2
	c-1.6,0.3-3.3,0.5-4.9,0.7L63.8,94.4z"/>
<g transform="translate(103.663 436.353)">
	<path class="st0" d="M282.5-85.3l-26.3-26.3c-10-10-25.7-11.2-37.1-2.8l-18-18c15.6-18.1,19.3-43.5,9.5-65.3
		c2.2-10.5,3.4-21.2,3.4-31.9c0.2-39.7-14.7-78-41.8-107l33.4-53.5c12.6,3.3,25.6-4.3,28.9-16.9c3.3-12.6-4.3-25.6-16.9-28.9
		c-12.6-3.3-25.6,4.3-28.9,16.9c-2,7.6-0.1,15.7,5.1,21.6l-37,59.2l-1.1,1.7l-1.1,1.7l1.4,1.4l1.4,1.4l1,1
		c16.1,16,28,35.6,34.8,57.2c6,19.1,8,39.2,5.8,59.1c-0.4-0.4-0.8-0.8-1.2-1.2c-8.8-8.8-20-14.7-32.3-16.9c-0.1-6.1-0.8-12.1-1.9-18
		l-0.3-1.3l-0.4-1.9l-0.4-1.9l-2-0.2l-2-0.2l-18.3-1.4c-4.5-13.5-12.1-25.7-22.4-35.5l6.6-17.2l0.7-1.8l0.7-1.8l-1.5-1.2l-1.5-1.2
		l-1.1-0.9l0,0l0,0c-4.4-3.2-9-6.1-13.8-8.6c-4.8-2.5-9.8-4.7-15-6.5l-1.3-0.4l-1.8-0.6l-1.8-0.6l-1.1,1.6l-1.1,1.6l-10.5,15.2
		c-13.9-2.8-28.3-2.2-41.9,1.7L22.3-328l-1.3-1.5l-1.3-1.6l-1.8,0.8l-1.8,0.8l-1.2,0.6c-9.9,4.4-19.1,10.2-27.3,17.2l0,0l-0.1,0.1
		l0,0l0,0l-1,0.9l-1.4,1.3l-1.4,1.3l0.8,1.7l0.8,1.7l7.9,16.6c-4.7,5.3-8.7,11.1-12,17.4c-3.3,6.3-5.9,12.9-7.6,19.8l-18.2,2.9
		l-1.9,0.3l-1.9,0.3l-0.2,1.9l-0.2,1.9l-0.2,1.4v0l0,0c-1.2,10.8-0.7,21.7,1.3,32.4l0.2,1.3l0.4,1.9l0.4,1.9l1.9,0.2l2,0.2l18.3,1.4
		c4.5,13.5,12.1,25.7,22.4,35.5l-6.6,17.2l-0.7,1.8l-0.7,1.8l1.5,1.2l1.5,1.2l1.1,0.9l0,0l0,0c4.4,3.2,9,6.1,13.8,8.6
		c4.8,2.5,9.8,4.6,14.9,6.4l1.4,0.5l1.8,0.6l1.8,0.6l1.1-1.6l1.1-1.6l10.5-15.3c5.8,1.2,11.7,1.8,17.6,1.8c8.2,0,16.4-1.2,24.3-3.5
		l11.6,14.3l1.3,1.6l1.3,1.6l1.8-0.8l1.8-0.8l1.2-0.6c1.8-0.8,3.6-1.7,5.5-2.6c1.4,1.8,3,3.5,4.6,5.2c22.7,22.7,59.1,24,83.4,3
		l18,18c-8.3,11.4-7.1,27.1,2.9,37.1l26.3,26.3c11.2,11.2,29.3,11.1,40.5,0C293.7-56,293.7-74.1,282.5-85.3z M58.2-186.6
		c-24.1,0.1-43.7-19.4-43.7-43.4c-0.1-24.1,19.4-43.7,43.4-43.7c0.1,0,0.3,0,0.4,0c24.1-0.1,43.7,19.4,43.7,43.4
		s-19.4,43.7-43.4,43.7C58.5-186.6,58.3-186.6,58.2-186.6z M7.4-257c-14.8,28.1-3.9,62.9,24.2,77.6c20.7,10.8,45.9,8.1,63.7-6.9
		c-2.9,12.3-1.8,25.2,2.9,37l-8.8-10.8l-1.1-1.4l-1.1-1.4l-1.7,0.6l-1.7,0.6l-1.2,0.4c-7.9,2.8-16.1,4.2-24.5,4.2
		c-6.3,0-12.6-0.8-18.7-2.5L38-160l-1.7-0.5l-1.7-0.5l-1,1.5l-1,1.5l-10,14.5c-2.7-1.1-5.4-2.4-8-3.7c-2.7-1.4-5.2-2.9-7.7-4.5
		l6.3-16.6l0.6-1.7l0.6-1.7l-1.4-1.2l-1.4-1.2l-1-0.9c-11.2-9.6-19.2-22.3-23-36.6l-0.3-1.3l-0.5-1.7l-0.5-1.7l-1.8-0.1l-1.8-0.1
		l-17.6-1.4c-0.8-5.9-1-11.9-0.7-17.8l17.4-2.8l1.8-0.3l1.8-0.3l0.3-1.7l0.3-1.7l0.3-1.3c1.3-7.2,3.8-14.2,7.2-20.8
		c3.4-6.5,7.8-12.5,13-17.7l0.9-0.9l1.3-1.3l1.3-1.3l-0.8-1.6l-0.8-1.6l-7.6-15.8c4.7-3.6,9.7-6.8,15-9.5l11.1,13.7l1.1,1.4l1.1,1.4
		l1.7-0.6l1.7-0.6l1.2-0.4c7.9-2.8,16.1-4.2,24.5-4.2c6.3,0,12.6,0.8,18.7,2.5l1.3,0.3l1.7,0.5l1.7,0.5l1-1.5l1-1.5l10-14.5
		c2.7,1.1,5.4,2.4,8,3.7c2.7,1.4,5.2,2.9,7.7,4.5l-6.3,16.5l-0.7,1.7l-0.7,1.7l1.4,1.2l1.4,1.2l1,0.9c11.2,9.6,19.2,22.3,23,36.6
		l0.3,1.3l0.5,1.7l0.5,1.7l1.8,0.1l1.8,0.1l17.6,1.4c0.4,3.1,0.7,6.3,0.8,9.4c-13.9,0.6-27.1,6-37.5,15.2
		c5.3-25.2-6.7-50.8-29.5-62.8c-8.2-4.4-17.3-6.7-26.6-6.6C36.9-287.7,17.3-275.9,7.4-257L7.4-257z M188.3-139
		c-18.5,18.4-48.4,18.3-66.8-0.2s-18.3-48.4,0.2-66.8c18.4-18.3,48.2-18.3,66.6,0c18.5,18.2,18.7,47.9,0.5,66.4
		C188.6-139.4,188.5-139.2,188.3-139z M236-106.1c3.9,0,7.7,1.6,10.5,4.3l26.3,26.3c5.7,5.8,5.6,15.2-0.2,20.9
		c-5.7,5.6-14.9,5.6-20.6,0l-26.3-26.3c-5.8-5.7-5.8-15.1,0-20.8C228.3-104.5,232.1-106.1,236-106.1L236-106.1z M196.8-412.8
		c0-8.2,6.6-14.8,14.8-14.8s14.8,6.6,14.8,14.8c0,8.2-6.6,14.8-14.8,14.8c-1,0-2-0.1-2.9-0.3l-0.6-0.4L206-400l-3.1-2l-2.2-1.4
		l-1.1-0.7C197.8-406.5,196.8-409.6,196.8-412.8L196.8-412.8z"/>
	<path class="st0" d="M182.3-193.5l-1.8-1.8l-2.6-2.6l-1.8-1.8l-1.8,1.8l-44.8,44.8l-1.8,1.8l1.8,1.8l2.6,2.6l1.8,1.8l1.8-1.8
		l44.8-44.8L182.3-193.5z"/>
	<path class="st0" d="M185.5-172.3l-1.8,1.8l-23.9,23.9l-1.8,1.8l1.8,1.8l2.6,2.6l1.8,1.8l1.8-1.8l23.9-23.9l1.8-1.8l-1.8-1.8
		l-2.6-2.6L185.5-172.3z"/>
	<path class="st0" d="M-42.9-87.6v-39.2l-0.7-0.7l-0.5-0.5c-56.4-56.4-56.4-148.1,0-204.5l1.8-1.8l-1.8-1.8l-2.6-2.6l-1.8-1.8
		l-1.8,1.8c-59.4,59.4-60,155.6-1.3,215.7v35.5c-12.8,2.4-21.2,14.7-18.8,27.5c2.4,12.8,14.7,21.2,27.5,18.8
		C-30.1-43.7-21.6-56-24-68.8C-25.8-78.3-33.3-85.8-42.9-87.6L-42.9-87.6z M-32.4-64.4c0,8.2-6.6,14.8-14.8,14.8
		c-8.2,0-14.8-6.6-14.8-14.8c0-8.2,6.6-14.8,14.8-14.8c0,0,0,0,0,0C-39-79.2-32.4-72.6-32.4-64.4z"/>
</g>
<line class="st1" x1="288.4" y1="302.4" x2="315.8" y2="329.8"/>
<path d="M318.9,326.6l-27.4-27.4l-1.8-1.8l-1.8,1.8l-2.6,2.6l-1.8,1.8l1.8,1.8l27.4,27.4l1.8,1.8l1.8-1.8l2.6-2.6l1.8-1.8
	L318.9,326.6z"/>
<path d="M375.9,352.9l-26.3-26.3c-10.2-10.2-26.7-10.1-36.9,0c-10.2,10.2-10.1,26.7,0,36.9l0,0l26.3,26.3
	c10.2,10.2,26.7,10.1,36.9,0C386.1,379.6,386.1,363.1,375.9,352.9z M331.2,327.7c4.6,0,9,1.8,12.3,5.1l26.3,26.3
	c6.7,6.8,6.7,17.7,0,24.5c-6.8,6.7-17.7,6.7-24.4,0l-26.3-26.3c-6.8-6.7-6.8-17.7,0-24.4C322.1,329.6,326.6,327.7,331.2,327.7
	L331.2,327.7z"/>
<g transform="translate(321.532 721.422) rotate(-45.008)">
	<rect x="241.3" y="-375.8" transform="matrix(-1 2.825455e-06 -2.825455e-06 -1 546.0533 -747.934)" width="63.4" height="3.7"/>
	
		<rect x="239.8" y="-377.3" transform="matrix(-1 2.825455e-06 -2.825455e-06 -1 546.0533 -747.934)" class="st1" width="66.4" height="6.7"/>
</g>
<g transform="translate(351.948 727.943) rotate(-45.008)">
	<rect x="241.3" y="-375.8" transform="matrix(-1 2.825455e-06 -2.825455e-06 -1 516.4304 -747.934)" width="33.8" height="3.7"/>
	
		<rect x="239.8" y="-377.3" transform="matrix(-1 2.825455e-06 -2.825455e-06 -1 516.4304 -747.934)" class="st1" width="36.8" height="6.7"/>
</g>
<path d="M51,308.3c-56.4-56.4-56.4-148.1,0-204.5l1.8-1.8l-1.8-1.8l-2.6-2.6l-1.8-1.8l-1.8,1.8c-59.4,59.4-60,155.6-1.3,215.7v41.9
	h6.2V354H51v-1.3h1.3v-43.1l-0.7-0.7L51,308.3z"/>
<path class="st2" d="M47.9,348.3c-13,0-23.6,10.6-23.6,23.6c0,13,10.6,23.6,23.6,23.6c13,0,23.6-10.6,23.6-23.6
	C71.5,358.9,61,348.3,47.9,348.3z M62.8,371.9c0,8.2-6.6,14.8-14.8,14.8s-14.8-6.6-14.8-14.8c0-8.2,6.6-14.8,14.8-14.8
	C56.1,357.1,62.7,363.7,62.8,371.9L62.8,371.9z"/>
<path class="st3" d="M178.9,157.5c-7.8-4.2-16.6-6.4-25.4-6.3c-30.4-0.1-55.1,24.4-55.2,54.8c-0.1,30.4,24.4,55.1,54.8,55.2
	c30.4,0.1,55.1-24.4,55.2-54.8C208.3,185.9,197,167.1,178.9,157.5z M194.2,227.6c-11.9,22.5-39.7,31.1-62.2,19.3
	c-22.5-11.9-31.1-39.7-19.3-62.2c11.9-22.5,39.7-31.1,62.2-19.3c10.8,5.7,18.9,15.4,22.5,27.1C201.1,204.1,199.9,216.8,194.2,227.6z
	"/>
<path class="st3" d="M70.6,37.3c-3.5-1.9-7.4-2.8-11.3-2.8c-13.5,0-24.5,10.9-24.6,24.4c0,13.5,10.9,24.5,24.4,24.6
	c13.5,0,24.5-10.9,24.6-24.4C83.6,49.9,78.6,41.5,70.6,37.3z M77.4,68.5c-5.3,10-17.7,13.9-27.7,8.6c-10-5.3-13.9-17.7-8.6-27.7
	c5.3-10,17.7-13.9,27.7-8.6c4.8,2.5,8.4,6.9,10,12C80.4,58,79.9,63.7,77.4,68.5z"/>
<path class="st3" d="M194.9,293.1l-12.4-15.3l-1.1-1.4l-1.7,0.6l-1.2,0.4c-8.1,2.9-16.7,4.4-25.3,4.4c-6.5,0-13.1-0.9-19.4-2.6
	l-1.3-0.3l-1.7-0.5l-1,1.5l-11.1,16.2c-7-2.7-13.6-6.2-19.8-10.4l7-18.5l0.6-1.7l-1.4-1.2l-1-0.9c-11.6-9.9-19.9-23.1-23.9-37.9
	l-0.3-1.3l-0.5-1.7l-1.8-0.1L58,221c-1.2-7.4-1.5-14.9-0.9-22.4l19.4-3.1l1.8-0.3l0.3-1.7l0.3-1.3c1.4-7.5,3.9-14.7,7.4-21.4
	c3.5-6.7,8-12.9,13.4-18.3l0.9-0.9l1.3-1.3l-0.8-1.6l-8.5-17.7c5.8-4.7,12.2-8.7,18.9-11.9l12.4,15.3l1.1,1.4l1.7-0.6l1.2-0.4
	c14.4-5.1,30-5.8,44.7-1.8l1.3,0.3l1.7,0.5l1-1.5l11.1-16.2c7,2.7,13.6,6.2,19.8,10.4l-7,18.4l-0.7,1.7l1.4,1.2l1,0.9
	c11.6,9.9,19.9,23.1,23.9,37.9l0.3,1.3l0.5,1.7l1.8,0.1l19.6,1.5c1,6.4,1.4,12.9,1.1,19.3h0.1c2.9,0,5.9,0.2,8.8,0.7
	c0.4-8.3-0.2-16.7-1.8-24.9l-0.3-1.4l-0.4-1.9l-2-0.2l-20-1.6c-4.4-14.3-12.5-27.1-23.4-37.2l7.2-18.8l0.7-1.8l-1.5-1.2l-1.1-0.9
	l0,0l0,0c-4.3-3.1-8.8-5.9-13.4-8.4c-4.7-2.4-9.6-4.5-14.6-6.3l-1.3-0.4l-1.8-0.6l-1.1,1.6l-11.4,16.6c-14.6-3.3-29.7-2.6-44,1.8
	L115.5,110l-1.3-1.6l-1.8,0.8l-1.3,0.6c-9.7,4.3-18.6,9.9-26.7,16.8l0,0l0,0l-1,0.9L82,129l0.8,1.7l8.7,18.2
	c-5.1,5.4-9.4,11.5-12.8,18.1c-3.5,6.6-6.1,13.6-7.7,20.8l-19.9,3.1l-1.9,0.3l-0.2,1.9l-0.2,1.4v0v0c-1.1,10.5-0.7,21.2,1.3,31.6
	l0.3,1.3l0.4,1.9l1.9,0.2l20,1.6c4.4,14.3,12.5,27.1,23.5,37.2L89,287.1l-0.7,1.8l1.5,1.2l1.1,0.9l0,0l0,0c4.3,3.1,8.8,5.9,13.4,8.4
	c4.7,2.4,9.6,4.5,14.6,6.3l1.3,0.4l1.8,0.6l1.1-1.6l11.4-16.7c6.1,1.4,12.4,2.1,18.7,2.1c8.6,0,17.1-1.3,25.2-3.8l12.7,15.7l1.3,1.6
	l1.8-0.8l1.3-0.6c3.9-1.7,7.7-3.7,11.4-5.9c-1.8-2.3-3.3-4.8-4.7-7.3C199.9,290.6,197.4,291.9,194.9,293.1z"/>
<path class="st3" d="M104.7,66.6l-8.1-3.9c0.2-3.3,0.1-6.6-0.6-9.9c-0.6-3.3-1.7-6.3-3.2-9.3l6.1-6.6l0.6-0.7L99,35.5L98.7,35
	c-2.5-4-5.5-7.7-9.1-10.7l-0.5-0.4l-0.7-0.6l-0.7,0.5L80.2,29c-5.5-3.7-11.8-6.1-18.4-6.5l-2.7-8.5l-0.3-0.8l-0.8,0l-0.6,0l0,0l0,0
	c-2.3,0.1-4.7,0.4-7,0.8c-2.3,0.5-4.6,1.1-6.8,1.9L43,16l-0.9,0.4l0.1,0.9l0.6,8.8c-6,2.9-11,7.3-14.8,12.8L19.3,37l-0.8-0.2l0,0
	l0,0L18,37.6l-0.3,0.5l0,0l0,0c-1.1,2.1-2,4.2-2.8,6.5c-0.8,2.2-1.4,4.5-1.8,6.8L13,52l-0.1,0.8l0.8,0.4l8,3.9
	c-0.2,2.8,0,5.7,0.4,8.4c0.6,3.8,1.7,7.4,3.3,10.9l-6,6.6l-0.6,0.6l0.5,0.8l0.3,0.5c0.5,0.8,1.1,1.6,1.7,2.4c0,0,0,0,0,0
	c0.5,0.8,1.1,1.5,1.7,2.2c0,0,0,0,0,0l0,0c1.8,2.1,3.8,4.1,5.9,5.9l0.5,0.4l0.7,0.6l0.7-0.5l7.4-5c5.5,3.7,11.9,6,18.5,6.4l2.7,8.5
	l0.3,0.8l0.8,0l0.6,0l0,0l0,0c2.3-0.1,4.7-0.4,7-0.8c0.9-0.2,1.8-0.4,2.6-0.6c1.4-0.3,2.8-0.7,4.1-1.2l0.6-0.2l0.8-0.3l-0.1-0.9
	l-0.6-9c6-2.9,11-7.3,14.8-12.8l8.8,1.9l0.8,0.2l0.4-0.7l0.3-0.5l0,0l0,0c1.1-2.1,2-4.2,2.8-6.5c0.3-0.8,0.5-1.5,0.7-2.3
	c0.5-1.5,0.8-3.1,1.1-4.6l0,0l0,0l0.1-0.6l0.1-0.8L104.7,66.6z M59.8,94.4l-0.2-0.8l-0.8,0l-0.6,0C51.4,93.3,44.8,91,39.4,87
	l-0.5-0.3l-0.6-0.5l-0.7,0.5l-7.3,4.9c-1.7-1.5-3.3-3.2-4.8-4.9c-0.3-0.3-0.5-0.6-0.7-0.9c0,0-0.1-0.1-0.1-0.1
	c-0.1-0.1-0.2-0.2-0.2-0.3l0.1-0.1c0,0,0,0-0.1,0c-0.2-0.3-0.5-0.7-0.7-1l5.9-6.5l0.5-0.6l-0.5-0.9l-0.3-0.5
	c-1.8-3.4-3-7.1-3.6-10.9c-0.4-2.9-0.5-5.8-0.1-8.7l0.1-0.6l0.1-0.8l-0.8-0.4l-7.8-3.7c0.5-2.1,1.1-4.2,1.9-6.3
	c0.4-1.1,0.8-2,1.3-3.1l8.6,1.9l0.7,0.2l0.5-0.8l0.3-0.5c1.2-1.9,2.6-3.8,4.2-5.4c0.1-0.1,0.3-0.3,0.4-0.4c0.1-0.1,0.2-0.2,0.2-0.2
	c2.9-2.9,6.4-5.3,10.2-6.9l0.5-0.2l0.8-0.3l-0.1-0.8l-0.7-8.6c3.1-1,6.6-1.7,9.8-2l2.5,8.3l0.3,0.9l0.9,0l0.6,0
	c3.4,0.1,6.7,0.7,9.9,1.8c0.2,0.1,0.5,0.2,0.7,0.3c2.8,1.1,5.5,2.5,8,4.3c0.1,0,0.1,0.1,0.2,0.1l0.5,0.3l0.6,0.5l0.7-0.5l7.2-4.9
	c2.4,2.2,4.6,4.8,6.5,7.5l-5.9,6.5l-0.5,0.6l0.4,0.7l0.3,0.5c1,1.8,1.7,3.7,2.4,5.6c0,0.1,0.1,0.2,0.1,0.3c0,0.1,0,0.1,0.1,0.2
	c0.3,1.1,0.6,2.3,0.9,3.5c0.6,3.3,0.8,6.7,0.4,10l-0.1,0.6L92.5,65l0.1,0.1l0,0l0.7,0.3l0.5,0.3l7.2,3.5c-0.7,3.2-1.8,6.4-3.2,9.4
	l-8.6-1.9l-0.8-0.2l-0.4,0.7l-0.3,0.5c-3.6,5.8-8.9,10.3-15.1,13L72.2,91l-0.7,0.3l0.1,0.8l0.6,8.7c-1.5,0.5-3.1,0.9-4.7,1.2
	c-1.6,0.3-3.3,0.5-4.9,0.7L59.8,94.4z"/>
<path d="M291.5,222.5c-22.9-22.9-60.1-23-83-0.1c-22.9,22.9-23,60.1-0.1,83c22.9,22.9,60.1,23,83,0.1c11-11,17.2-26,17.2-41.6
	C308.7,248.4,302.5,233.5,291.5,222.5z M285.3,299.1c-19.5,19.4-51,19.3-70.4-0.2c-19.4-19.5-19.3-51,0.2-70.4
	c19.4-19.3,50.8-19.3,70.2,0c19.5,19.2,19.7,50.5,0.5,70C285.6,298.7,285.4,298.9,285.3,299.1z"/>
<path d="M257.6,314l0.6,0.6l1.8,1.8l1.8-1.8c0.6-0.6,1.2-1.2,1.8-1.9C261.6,313.2,259.6,313.7,257.6,314z"/>
<g transform="translate(348.326 436.353)">
	<path d="M-92.7-332.5c34.8,34.8,49.5,84.9,39,133c2.5,4.3,4.3,8.9,5.5,13.8c10-33.3,8.5-69-4.3-101.3c-7.2-18.3-18-35-31.6-49.2
		l36.3-58.1l1.3-2.1l-2.1-1.4l-3.1-2l-2.2-1.4l-1.4,2.2l-38.9,62.3l-1.1,1.7l1.4,1.4L-92.7-332.5z"/>
	<path class="st2" d="M-41.6-436.4c-13,0-23.6,10.6-23.6,23.6c0,13,10.6,23.6,23.6,23.6c13,0,23.6-10.6,23.6-23.6
		C-18-425.8-28.6-436.3-41.6-436.4z M-26.8-412.8c0,8.2-6.6,14.8-14.8,14.8c-8.2,0-14.8-6.6-14.8-14.8c0-8.2,6.6-14.8,14.8-14.8
		c3.9,0,7.7,1.6,10.5,4.3C-28.4-420.5-26.8-416.7-26.8-412.8L-26.8-412.8z"/>
</g>
</svg>
