<svg version="1.1" id="Layer_1" xmlns="http://www.w3.org/2000/svg" x="0" y="0" viewBox="0 0 582.2 100.4" xml:space="preserve"><style>.st0{fill:#102a3d}</style><path class="st0" d="M65.2 25c-3.9-2.2-8.4-3.5-12.9-3.5-4.7 0-9.3 1.2-13.3 3.7-4 2.4-7.3 5.9-9.5 10.1-2.4 4.4-3.6 9.3-3.5 14.3-.1 5 1.1 9.9 3.5 14.3C31.7 68.1 35 71.6 39 74c4 2.4 8.7 3.7 13.4 3.7 4.3-.1 8.6-1.1 12.5-3 4.3-2 8.3-4.9 11.6-8.3l14.8 15.9C86 87.9 79.6 92.4 72.5 95.5c-15.2 7.1-32.9 6.5-47.5-1.7-7.7-4.4-14-10.6-18.3-18.2C2.2 67.8-.1 58.9 0 49.8c-.3-18 9.5-34.7 25.4-43.3C33.5 2.1 42.7-.1 51.9 0c7.3 0 14.6 1.6 21.3 4.5 6.7 2.8 12.8 7 17.9 12.2L76.4 34.5c-3-3.9-6.8-7.1-11.2-9.5z"/><path d="M192.2 24.4c-4.5-7.5-11.1-13.7-18.8-17.9C165.2 2.1 156-.1 146.6 0c-9.3-.1-18.6 2.1-26.8 6.5-16 8.5-25.9 25.2-25.7 43.3-.1 9.1 2.3 18 6.9 25.8 4.5 7.6 11 13.9 18.8 18.1 8.2 4.4 17.4 6.7 26.8 6.6 9.4.1 18.6-2.2 26.8-6.7 16.1-8.7 26-25.6 25.7-43.9.1-8.8-2.3-17.6-6.9-25.3zm-22.6 40.2c-2.2 4.3-5.5 7.9-9.5 10.4-3.9 2.5-8.5 3.8-13.2 3.8-4.7 0-9.3-1.3-13.3-3.8-4.1-2.6-7.4-6.1-9.8-10.4-2.5-4.5-3.7-9.5-3.7-14.6-.1-5.1 1.2-10 3.6-14.5 2.3-4.2 5.6-7.8 9.8-10.3 4-2.5 8.6-3.8 13.4-3.7 4.7 0 9.3 1.2 13.2 3.7 4 2.5 7.3 6.1 9.5 10.3 2.3 4.5 3.5 9.4 3.5 14.5s-1.2 10.1-3.5 14.6z" fill="#2f55d4"/><path class="st0" d="M278.8 67c5.4-2.7 10-7.1 13-12.4 3-5.3 4.5-11.6 4.5-18.9 0-10.8-3.6-19.1-10.6-25.1-7.1-5.9-17.1-8.9-30-8.9h-43.8v96.9h25.5V71.5h19l14.3 27.1h28.7L278.8 67zm-11.1-19.3c-2.8 2.6-6.8 3.9-12 3.9h-18.5V21.7h18.5c5.2 0 9.2 1.3 12 3.8 2.8 2.5 4.2 6.2 4.2 10.9 0 4.9-1.4 8.7-4.2 11.3zm35.9-46.5h83.1v21h-28.8v76.5h-25.5V22.2h-28.8zm93 .6h78.1v19.9h-52.6V40h26.3v19.9h-26.3v18.3h52.6v20.5h-78.1zm87.2 0h29.4l18.1 27.5 18.3-27.5h29.8l-31.9 46.3 34.7 50.6h-30.3l-20.6-30-20.2 30h-29.5L516 49.3z"/></svg>