<?xml version="1.0" encoding="utf-8"?>
<!-- Generator: Adobe Illustrator 24.2.0, SVG Export Plug-In . SVG Version: 6.00 Build 0)  -->
<svg version="1.1" id="Layer_1" xmlns="http://www.w3.org/2000/svg" xmlns:xlink="http://www.w3.org/1999/xlink" x="0px" y="0px"
	 viewBox="0 0 582.2 100.4" style="enable-background:new 0 0 582.2 100.4;" xml:space="preserve">
<style type="text/css">
	.st0{fill:#102A3D;}
	.st1{fill:#2F55D4;}
</style>
<path class="st0" d="M65.2,25c-3.9-2.2-8.4-3.5-12.9-3.5c-4.7,0-9.3,1.2-13.3,3.7c-4,2.4-7.3,5.9-9.5,10.1
	c-2.4,4.4-3.6,9.3-3.5,14.3c-0.1,5,1.1,9.9,3.5,14.3C31.7,68.1,35,71.6,39,74c4,2.4,8.7,3.7,13.4,3.7c4.3-0.1,8.6-1.1,12.5-3
	c4.3-2,8.3-4.9,11.6-8.3l14.8,15.9c-5.3,5.6-11.7,10.1-18.8,13.2c-15.2,7.1-32.9,6.5-47.5-1.7C17.3,89.4,11,83.2,6.7,75.6
	C2.2,67.8-0.1,58.9,0,49.8C-0.3,31.8,9.5,15.1,25.4,6.5C33.5,2.1,42.7-0.1,51.9,0c7.3,0,14.6,1.6,21.3,4.5c6.7,2.8,12.8,7,17.9,12.2
	L76.4,34.5C73.4,30.6,69.6,27.4,65.2,25z"/>
<path class="st1" d="M192.2,24.4c-4.5-7.5-11.1-13.7-18.8-17.9c-8.2-4.4-17.4-6.6-26.8-6.5c-9.3-0.1-18.6,2.1-26.8,6.5
	c-16,8.5-25.9,25.2-25.7,43.3c-0.1,9.1,2.3,18,6.9,25.8c4.5,7.6,11,13.9,18.8,18.1c8.2,4.4,17.4,6.7,26.8,6.6
	c9.4,0.1,18.6-2.2,26.8-6.7c16.1-8.7,26-25.6,25.7-43.9C199.2,40.9,196.8,32.1,192.2,24.4z M169.6,64.6c-2.2,4.3-5.5,7.9-9.5,10.4
	c-3.9,2.5-8.5,3.8-13.2,3.8c-4.7,0-9.3-1.3-13.3-3.8c-4.1-2.6-7.4-6.1-9.8-10.4c-2.5-4.5-3.7-9.5-3.7-14.6c-0.1-5.1,1.2-10,3.6-14.5
	c2.3-4.2,5.6-7.8,9.8-10.3c4-2.5,8.6-3.8,13.4-3.7c4.7,0,9.3,1.2,13.2,3.7c4,2.5,7.3,6.1,9.5,10.3c2.3,4.5,3.5,9.4,3.5,14.5
	C173.1,55.1,171.9,60.1,169.6,64.6z"/>
<path class="st0" d="M278.8,67c5.4-2.7,10-7.1,13-12.4c3-5.3,4.5-11.6,4.5-18.9c0-10.8-3.6-19.1-10.6-25.1c-7.1-5.9-17.1-8.9-30-8.9
	h-43.8v96.9h25.5V71.5h19l14.3,27.1h28.7L278.8,67z M267.7,47.7c-2.8,2.6-6.8,3.9-12,3.9h-18.5V21.7h18.5c5.2,0,9.2,1.3,12,3.8
	c2.8,2.5,4.2,6.2,4.2,10.9C271.9,41.3,270.5,45.1,267.7,47.7z"/>
<polygon class="st0" points="303.6,1.2 386.7,1.2 386.7,22.2 357.9,22.2 357.9,98.7 332.4,98.7 332.4,22.2 303.6,22.2 "/>
<polygon class="st0" points="396.6,1.8 474.7,1.8 474.7,21.7 422.1,21.7 422.1,40 448.4,40 448.4,59.9 422.1,59.9 422.1,78.2 
	474.7,78.2 474.7,98.7 396.6,98.7 "/>
<polygon class="st0" points="483.8,1.8 513.2,1.8 531.3,29.3 549.6,1.8 579.4,1.8 547.5,48.1 582.2,98.7 551.9,98.7 531.3,68.7 
	511.1,98.7 481.6,98.7 516,49.3 "/>
</svg>
