<svg version="1.1" id="Layer_1" xmlns="http://www.w3.org/2000/svg" x="0" y="0" viewBox="0 0 1402.3 1432.3" xml:space="preserve"><style>.st0{opacity:.5;fill:none;stroke:#2f55d4;stroke-width:2;stroke-linecap:round;stroke-linejoin:round;enable-background:new}.st1{stroke:#d4e1f4}.st1,.st2,.st3,.st5{fill:none;stroke-width:2;stroke-linecap:round;stroke-linejoin:round}.st2{stroke:#d4e1f4;stroke-dasharray:12}.st3,.st5{opacity:.5;stroke:#2eca8b;enable-background:new}.st5{opacity:.25}</style><path class="st0" d="M61.6 915.1c28.2 0 28.2 35.7 56.4 35.7s28.2-35.7 56.4-35.7 28.2 35.7 56.4 35.7 28.2-35.7 56.4-35.7 28.2 35.7 56.4 35.7"/><path class="st1" d="M1 306.7c28.2 0 28.2 35.7 56.4 35.7s28.2-35.7 56.4-35.7 28.2 35.7 56.4 35.7 28.2-35.7 56.4-35.7 28.2 35.7 56.4 35.7"/><path class="st2" d="M1 336.4c28.2 0 28.2 35.7 56.4 35.7s28.2-35.7 56.4-35.7 28.2 35.7 56.4 35.7 28.2-35.7 56.4-35.7 28.2 35.7 56.4 35.7"/><path class="st1" d="M631 1236.3l24.3 15.3 24.3-15.3 24.3 15.3 24.3-15.3 24.3 15.3"/><path class="st3" d="M98.7 445.1l24.3 15.3 24.3-15.3 24.3 15.3 24.3-15.3 24.3 15.3"/><path class="st1" d="M582.8 1220.9l24.3 15.3 24.3-15.3 24.3 15.3 24.3-15.3 24.3 15.3"/><path class="st3" d="M833.1 97.7l31.3 19.8 31.3-19.8 31.3 19.8 31.3-19.8 31.3 19.8m93.3 401.3l31.3 19.8 31.3-19.8 31.3 19.8 31.3-19.8 31.3 19.8"/><path class="st1" d="M482.2 233.4l57.8-10 15.7-56.5 57.8-10 15.7-56.5 57.8-10"/><path class="st2" d="M585.2 195.8l57.8-10 15.7-56.5 57.8-10 15.7-56.5 57.8-10"/><path class="st0" d="M789.1 299.4l39.5 72.9m16.7-56.2l-72.9 39.5"/><path d="M138.7 1319.8l32.5 60m13.8-46.3l-60 32.5" opacity=".25" fill="none" stroke="#2f55d4" stroke-width="2" stroke-linecap="round" stroke-linejoin="round"/><path class="st1" d="M1161 1012.5l59.2-51.6-21.3-75.6 59.2-51.7"/><path class="st0" d="M1321.1 1031.2l-21.3-75.6 59.2-51.7"/><circle class="st0" cx="1329.8" cy="445.2" r="33.7"/><circle class="st0" cx="1359.1" cy="1244.3" r="33.7"/><path class="st1" d="M907 444.9l29.6-29.6 29.6 29.6-29.6 29.6-29.6-29.6z"/><path class="st0" d="M39.5 94.5L69.1 65l29.6 29.6-29.6 29.6-29.6-29.7z"/><path class="st1" d="M50 1108.8h41.8v41.8H50v-41.8z"/><path class="st5" d="M1081.4 1351.3h41.8v41.8h-41.8v-41.8z"/><path class="st1" d="M1218.4 741.6l68.2-13.6 16-68.2-68.2 13.6-16 68.2z"/><path class="st1" d="M1195.4 632.5l68.2-13.6 39 40.9-68.2 13.6-39-40.9z"/><path class="st1" d="M1179.4 700.7l16-68.2 39 40.9-16 68.2-39-40.9z"/><path class="st5" d="M361.3 1335.3l68.2-13.6 16-68.2-68.2 13.6-16 68.2z"/><path class="st5" d="M338.3 1226.2l68.2-13.6 39 40.9-68.2 13.6-39-40.9z"/><path class="st5" d="M322.3 1294.4l16-68.2 39 40.9-16 68.2-39-40.9z"/><path class="st1" d="M570.6 570.2l-53.9-53.6 19.5-73.5 73.4-19.8 53.9 53.6"/><path class="st1" d="M663.4 476.9L590 496.7 536.3 443m53.8 53.7l-19.5 73.5M409.1 408.7l53.6 53.9 73.5-19.5 19.8-73.4-53.6-53.9-73.5 19.5-19.8 73.4zm274.1-5.1L663.8 477l-53.9-53.6 19.5-73.5 53.8 53.7m-180.9-88.1l53.6 53.9 73.5-19.5"/><path class="st1" d="M409.1 408.7l53.9 53.6-19.5 73.5"/><path class="st1" d="M497.1 589.6l73.4-19.4-53.6-53.9-73.5 19.5 53.7 53.8m5.3-273.8l-19.8 73.4 53.8 53.8m-53.8-53.8l-73.5 19.5m404.8 721.5l11.8-61 58.7-20.3 46.9 40.7-11.8 61"/><path class="st1" d="M919.6 1150.6l-46.9-40.7 11.9-61m-12 61l-58.7 20.3m35.8-183.1l-12 60.9 46.8 40.9 58.8-20 12.1-60.9-46.9-41-58.8 20.1zm128.6 183.5l-58.6 20.3 11.8-61 58.7-20.3-11.9 61m-22.8-162.9l-12 60.9 46.8 40.9"/><path class="st1" d="M849.7 947.1l-11.8 61-58.7 20.3m-12 60.9l46.7 40.9 12-60.9-46.8-40.9-11.9 60.9m188.1-121.4l-58.8 20-11.9 61m11.9-60.9l-46.8-40.9m-277.1 69.4L449.7 893.7l168.2-45-45.3 167.8z"/><path class="st1" d="M560 969.4l-63-63 86.3-23.1-23.3 86.1zm12.6 47.1l-4 15-122.9-122.8 4-15m58.3 23.7l71.3-19.1M865.4 1322H691.7l87.1-150.7 86.6 150.7z"/><path class="st1" d="M823.1 1297.5H734l44.7-77.3 44.4 77.3zm42.3 24.5l7.8 13.4H699.5l-7.8-13.4m57.8-24.5l37-63.8m149.3-488L777 587l217.2-58.2-58.4 216.9z"/><path class="st1" d="M919.5 684.7l-81.4-81.4 111.5-29.8-30.1 111.2zm16.3 61l-5.2 19.4-158.7-158.7L777 587m75.3 30.5l92.1-24.6"/></svg>