<?xml version="1.0" encoding="utf-8"?>
<!-- Generator: Adobe Illustrator 24.2.0, SVG Export Plug-In . SVG Version: 6.00 Build 0)  -->
<svg version="1.1" id="Layer_1" xmlns="http://www.w3.org/2000/svg" xmlns:xlink="http://www.w3.org/1999/xlink" x="0px" y="0px"
	 viewBox="0 0 1402.3 1530.3" style="enable-background:new 0 0 1402.3 1530.3;" xml:space="preserve">
<style type="text/css">
	.st0{opacity:0.5;fill:none;stroke:#2F55D4;stroke-width:2;stroke-linecap:round;stroke-linejoin:round;}
	.st1{fill:none;stroke:#D4E1F4;stroke-width:2;stroke-linecap:round;stroke-linejoin:round;}
	.st2{fill:none;stroke:#D4E1F4;stroke-width:2;stroke-linecap:round;stroke-linejoin:round;stroke-dasharray:12;}
	.st3{opacity:0.5;fill:none;stroke:#2ECA8B;stroke-width:2;stroke-linecap:round;stroke-linejoin:round;}
	.st4{opacity:0.25;}
	.st5{fill:none;stroke:#2F55D4;stroke-width:2;stroke-linecap:round;stroke-linejoin:round;}
	.st6{opacity:0.25;fill:none;stroke:#2ECA8B;stroke-width:2;stroke-linecap:round;stroke-linejoin:round;}
</style>
<path class="st0" d="M61.6,915.1c28.2,0,28.2,35.7,56.4,35.7s28.2-35.7,56.4-35.7s28.2,35.7,56.4,35.7s28.2-35.7,56.4-35.7
	s28.2,35.7,56.4,35.7"/>
<path class="st1" d="M1,306.7c28.2,0,28.2,35.7,56.4,35.7s28.2-35.7,56.4-35.7s28.2,35.7,56.4,35.7s28.2-35.7,56.4-35.7
	s28.2,35.7,56.4,35.7"/>
<path class="st2" d="M1,336.4c28.2,0,28.2,35.7,56.4,35.7s28.2-35.7,56.4-35.7s28.2,35.7,56.4,35.7s28.2-35.7,56.4-35.7
	s28.2,35.7,56.4,35.7"/>
<path class="st1" d="M631,1236.3l24.3,15.3l24.3-15.3l24.3,15.3l24.3-15.3l24.3,15.3"/>
<path class="st3" d="M98.7,445.1l24.3,15.3l24.3-15.3l24.3,15.3l24.3-15.3l24.3,15.3"/>
<path class="st1" d="M582.8,1220.9l24.3,15.3l24.3-15.3l24.3,15.3l24.3-15.3l24.3,15.3"/>
<path class="st3" d="M833.1,97.7l31.3,19.8l31.3-19.8l31.3,19.8l31.3-19.8l31.3,19.8"/>
<path class="st3" d="M1082.9,518.8l31.3,19.8l31.3-19.8l31.3,19.8l31.3-19.8l31.3,19.8"/>
<path class="st1" d="M482.2,233.4l57.8-10l15.7-56.5l57.8-10l15.7-56.5l57.8-10"/>
<path class="st2" d="M585.2,195.8l57.8-10l15.7-56.5l57.8-10l15.7-56.5l57.8-10"/>
<line class="st0" x1="789.1" y1="299.4" x2="828.6" y2="372.3"/>
<line class="st0" x1="845.3" y1="316.1" x2="772.4" y2="355.6"/>
<g class="st4">
	<line class="st5" x1="138.7" y1="1319.8" x2="171.2" y2="1379.8"/>
	<line class="st5" x1="185" y1="1333.5" x2="125" y2="1366"/>
</g>
<path class="st1" d="M1161,1012.5l59.2-51.6l-21.3-75.6l59.2-51.7"/>
<path class="st0" d="M1321.1,1031.2l-21.3-75.6l59.2-51.7"/>
<circle class="st0" cx="1329.8" cy="445.2" r="33.7"/>
<circle class="st0" cx="1359.1" cy="1244.3" r="33.7"/>
<rect x="915.7" y="423.9" transform="matrix(0.7071 -0.7071 0.7071 0.7071 -40.2162 792.606)" class="st1" width="41.8" height="41.8"/>
<rect x="48.2" y="73.6" transform="matrix(0.7071 -0.7071 0.7071 0.7071 -46.6165 76.5742)" class="st0" width="41.8" height="41.8"/>
<rect x="50" y="1108.8" class="st1" width="41.8" height="41.8"/>
<rect x="1081.4" y="1351.3" class="st6" width="41.8" height="41.8"/>
<path class="st1" d="M1218.4,741.6l68.2-13.6l16-68.2l-68.2,13.6L1218.4,741.6z"/>
<path class="st1" d="M1195.4,632.5l68.2-13.6l39,40.9l-68.2,13.6L1195.4,632.5z"/>
<path class="st1" d="M1179.4,700.7l16-68.2l39,40.9l-16,68.2L1179.4,700.7z"/>
<path class="st6" d="M361.3,1335.3l68.2-13.6l16-68.2l-68.2,13.6L361.3,1335.3z"/>
<path class="st6" d="M338.3,1226.2l68.2-13.6l39,40.9l-68.2,13.6L338.3,1226.2z"/>
<path class="st6" d="M322.3,1294.4l16-68.2l39,40.9l-16,68.2L322.3,1294.4z"/>
<path class="st1" d="M570.6,570.2l-53.9-53.6l19.5-73.5l73.4-19.8l53.9,53.6"/>
<path class="st1" d="M663.4,476.9l-73.4,19.8L536.3,443"/>
<line class="st1" x1="590.1" y1="496.7" x2="570.6" y2="570.2"/>
<path class="st1" d="M409.1,408.7l53.6,53.9l73.5-19.5l19.8-73.4l-53.6-53.9l-73.5,19.5L409.1,408.7z"/>
<path class="st1" d="M683.2,403.6L663.8,477l-53.9-53.6l19.5-73.5L683.2,403.6"/>
<path class="st1" d="M502.3,315.5l53.6,53.9l73.5-19.5"/>
<path class="st1" d="M409.1,408.7l53.9,53.6l-19.5,73.5"/>
<path class="st1" d="M497.1,589.6l73.4-19.4l-53.6-53.9l-73.5,19.5L497.1,589.6"/>
<path class="st1" d="M502.4,315.8l-19.8,73.4l53.8,53.8"/>
<line class="st1" x1="482.6" y1="389.2" x2="409.1" y2="408.7"/>
<path class="st1" d="M813.9,1130.2l11.8-61l58.7-20.3l46.9,40.7l-11.8,61"/>
<path class="st1" d="M919.6,1150.6l-46.9-40.7l11.9-61"/>
<line class="st1" x1="872.6" y1="1109.9" x2="813.9" y2="1130.2"/>
<path class="st1" d="M849.7,947.1l-12,60.9l46.8,40.9l58.8-20l12.1-60.9L908.5,927L849.7,947.1z"/>
<path class="st1" d="M978.3,1130.6l-58.6,20.3l11.8-61l58.7-20.3L978.3,1130.6"/>
<path class="st1" d="M955.5,967.7l-12,60.9l46.8,40.9"/>
<path class="st1" d="M849.7,947.1l-11.8,61l-58.7,20.3"/>
<path class="st1" d="M767.2,1089.3l46.7,40.9l12-60.9l-46.8-40.9L767.2,1089.3"/>
<path class="st1" d="M955.3,967.9l-58.8,20l-11.9,61"/>
<line class="st1" x1="896.5" y1="988" x2="849.7" y2="947.1"/>
<path class="st1" d="M572.6,1016.5L449.7,893.7l168.2-45L572.6,1016.5z"/>
<path class="st1" d="M560,969.4l-63-63l86.3-23.1L560,969.4z"/>
<path class="st1" d="M572.6,1016.5l-4,15L445.7,908.7l4-15"/>
<line class="st1" x1="508" y1="917.4" x2="579.3" y2="898.3"/>
<path class="st1" d="M865.4,1322l-173.7,0l87.1-150.7L865.4,1322z"/>
<path class="st1" d="M823.1,1297.5l-89.1,0l44.7-77.3L823.1,1297.5z"/>
<path class="st1" d="M865.4,1322l7.8,13.4l-173.7,0l-7.8-13.4"/>
<line class="st1" x1="749.5" y1="1297.5" x2="786.5" y2="1233.7"/>
<path class="st1" d="M935.8,745.7L777,587l217.2-58.2L935.8,745.7z"/>
<path class="st1" d="M919.5,684.7l-81.4-81.4l111.5-29.8L919.5,684.7z"/>
<path class="st1" d="M935.8,745.7l-5.2,19.4L771.9,606.4L777,587"/>
<line class="st1" x1="852.3" y1="617.5" x2="944.4" y2="592.9"/>
</svg>
